<svg xmlns="http://www.w3.org/2000/svg" viewBox="0 0 15.01 20.99"><defs><style>.a{fill:#ef3e36;}</style></defs><title>logo-red</title><path class="a" d="M13.45.69,13.1,3.21l-1.35,3,3.51,15.08H10.73l-.6-3A2.41,2.41,0,0,0,8,16.36H7.48a2.4,2.4,0,0,0-2.13,1.87l-.6,3H.25L3.77,6.16h0L2.43,3.25h0v0L2.05.55C2.84.47,3.64.4,4.44.36h0L5,.76,5.4,3l.7,0h.09L6.29.26H9.2L9.29,3h0l.78,0h0L10.46.76,11,.38v0h0c.81.05,1.62.12,2.42.21ZM9.26,13.31l-1-4.6c-.06-.32-.23-.49-.51-.49H7.7c-.27,0-.44.17-.5.49l-1,4.59h3Z" transform="translate(-0.25 -0.25)"/></svg>