<svg xmlns="http://www.w3.org/2000/svg" width="681.199" height="681.332" viewBox="0 0 180.234 180.269"><g fill="#ef3e36"><path d="M180.373 53.176c-.422-9.578-1.97-16.164-4.19-21.87-2.289-6.056-5.81-11.48-10.424-15.987A44.365 44.365 0 0 0 149.806 4.93c-5.74-2.219-12.29-3.767-21.868-4.19-9.65-.458-12.714-.564-37.189-.564S63.211.282 53.597.704c-9.579.423-16.164 1.973-21.868 4.19-6.059 2.29-11.481 5.811-15.99 10.425A44.383 44.383 0 0 0 5.352 31.272c-2.219 5.74-3.768 12.29-4.19 21.868C.703 62.79.597 65.854.597 90.33c0 24.474.106 27.538.528 37.152.423 9.579 1.973 16.164 4.192 21.87a44.453 44.453 0 0 0 10.423 15.987 44.365 44.365 0 0 0 15.953 10.389c5.74 2.219 12.29 3.768 21.87 4.19 9.612.424 12.677.528 37.152.528s27.538-.104 37.153-.528c9.578-.422 16.163-1.971 21.868-4.19a46.11 46.11 0 0 0 26.377-26.376c2.218-5.74 3.768-12.291 4.19-21.87.423-9.614.529-12.678.529-37.152 0-24.475-.036-27.539-.459-37.153zm-16.233 73.6c-.388 8.805-1.867 13.559-3.1 16.728a29.904 29.904 0 0 1-17.115 17.116c-3.17 1.232-7.958 2.711-16.727 3.098-9.509.423-12.36.528-36.413.528-24.053 0-26.94-.105-36.414-.528-8.804-.387-13.558-1.866-16.727-3.098-3.908-1.445-7.466-3.734-10.353-6.727a28.026 28.026 0 0 1-6.727-10.353c-1.232-3.17-2.711-7.96-3.098-16.727-.423-9.509-.528-12.362-.528-36.414 0-24.053.105-26.94.528-36.413.387-8.804 1.866-13.558 3.098-16.727 1.444-3.91 3.734-7.466 6.763-10.355a27.984 27.984 0 0 1 10.352-6.725c3.17-1.233 7.96-2.711 16.728-3.1 9.508-.422 12.361-.527 36.413-.527 24.088 0 26.94.105 36.413.528 8.804.388 13.558 1.866 16.728 3.099 3.908 1.443 7.465 3.732 10.353 6.725a28.02 28.02 0 0 1 6.727 10.355c1.232 3.17 2.71 7.958 3.099 16.727.422 9.508.528 12.36.528 36.413 0 24.052-.106 26.87-.528 36.378zm0 0"/><path d="M90.75 44.02c-25.566 0-46.31 20.741-46.31 46.309 0 25.567 20.744 46.308 46.31 46.308 25.567 0 46.308-20.741 46.308-46.308 0-25.568-20.741-46.31-46.309-46.31zm0 76.348c-16.586 0-30.04-13.452-30.04-30.04 0-16.587 13.454-30.039 30.04-30.039 16.587 0 30.039 13.452 30.039 30.04 0 16.587-13.452 30.039-30.04 30.039zm58.951-78.179c0 5.97-4.84 10.81-10.812 10.81-5.97 0-10.81-4.84-10.81-10.81 0-5.972 4.84-10.811 10.81-10.811 5.972 0 10.812 4.84 10.812 10.81zm0 0"/></g></svg>