<svg xmlns="http://www.w3.org/2000/svg" width="25" height="25"><path fill="#ef3e36" d="M24.057.944c.629.629.943 1.383.943 2.262v18.588c0 .879-.314 1.632-.944 2.262-.63.63-1.383.944-2.263.944H3.206c-.88 0-1.633-.314-2.262-.944-.63-.63-.945-1.383-.945-2.262V3.206c0-.88.316-1.633.945-2.262.629-.63 1.383-.945 2.262-.945h18.587c.88 0 1.633.315 2.264.945zM8.976 9.008c-.981.95-1.473 2.097-1.473 3.443s.492 2.493 1.473 3.442c.982.95 2.162 1.424 3.54 1.424 1.39 0 2.575-.474 3.556-1.424.983-.95 1.473-2.096 1.473-3.442s-.49-2.493-1.473-3.443c-.98-.95-2.167-1.424-3.555-1.424-1.379 0-2.559.475-3.541 1.424zm13.192 1.571h-2.197c.217.684.326 1.394.326 2.132a7.212 7.212 0 0 1-1.042 3.785 7.603 7.603 0 0 1-2.832 2.743 7.826 7.826 0 0 1-3.906 1.008c-2.139 0-3.967-.735-5.486-2.205-1.52-1.47-2.28-3.247-2.28-5.331a7 7 0 0 1 .327-2.132H2.783v10.547c0 .282.095.518.285.708a.96.96 0 0 0 .707.285h17.4a.97.97 0 0 0 .7-.285.95.95 0 0 0 .293-.708zm0-6.673a1.09 1.09 0 0 0-.326-.79 1.07 1.07 0 0 0-.797-.334h-2.832c-.314 0-.58.111-.797.334a1.091 1.091 0 0 0-.326.79v2.686c0 .314.108.58.326.796.216.218.483.326.797.326h2.832c.314 0 .581-.108.797-.326.218-.216.326-.482.326-.796z"/></svg>