<svg xmlns="http://www.w3.org/2000/svg" width="19" height="26"><path data-name="home - active" d="M14.564 7.329l1.707-3.647.442-3.117.024-.167a56.13 56.13 0 0 0-3.072-.251v.026l-.73.479-.45 2.785v.009l-.998-.046h-.03L11.333.032A85.923 85.923 0 0 0 9.497.011h-.01c-.618 0-1.227.008-1.837.021l-.122 3.315H7.41l-.884.026L6.063.638l-.747-.5h-.005c-1.024.056-2.03.139-3.027.248l.464 3.294.014.035v.015l1.682 3.585.006.015L.006 26H5.7l.753-3.721a3.038 3.038 0 0 1 2.7-2.322c.014 0 .03-.006.042-.006h.023c.063 0 .128-.008.185-.008h.166c.056 0 .122.008.184.008h.022c.015 0 .029.006.044.006a3.06 3.06 0 0 1 2.533 1.812 2.718 2.718 0 0 1 .165.51L13.272 26h5.741zM7.58 16.186v-.014l1.217-5.69a.633.633 0 0 1 .637-.6h.108a.635.635 0 0 1 .639.6l1.221 5.7H7.58z" fill="#ef3e36" fill-rule="evenodd"/></svg>