<svg xmlns="http://www.w3.org/2000/svg" viewBox="0 0 15.01 20.99"><defs><style>.a{fill:#ef3e36;}</style></defs><title>logo-red</title><path class="a" d="M13.2.89l-.35,2.52-1.35,3L15,21.44H10.48l-.6-3a2.41,2.41,0,0,0-2.13-1.87H7.23A2.4,2.4,0,0,0,5.1,18.43l-.6,3H0L3.52,6.36h0L2.18,3.45h0v0L1.8.75C2.59.67,3.39.6,4.19.56h0L4.79,1l.36,2.21.7,0h.09L6,.46H9L9,3.18h0l.78,0h0L10.21,1l.58-.38v0h0c.81,0,1.62.12,2.42.21ZM9,13.51,8,8.91c-.06-.32-.23-.49-.51-.49H7.45c-.27,0-.44.17-.5.49L6,13.5H9Z" transform="translate(0 -0.45)"/></svg>