<svg xmlns="http://www.w3.org/2000/svg" viewBox="0 0 159 159"><path d="M79.5 6.76A72.72 72.72 0 1 1 6.78 79.48 72.72 72.72 0 0 1 79.5 6.76z" fill="#212869"/><path d="M75.11 100c-.15.67-.33 1.33-.45 2a19 19 0 0 1-2.18 5.81c-.91 1.64-1.88 3.24-2.82 4.85-1.07 1.83-2.13 3.67-3.21 5.5a3.11 3.11 0 0 1-2.91 1.84c-2.68-.08-5.37 0-8.06 0a2.18 2.18 0 0 1-.67-.1c-1-.29-1-.57-.45-1.42s1-1.8 1.53-2.69c1.19-2 2.36-4 3.59-6S62 106 63.09 104a18.67 18.67 0 0 0 1.84-5.42 29.06 29.06 0 0 0 .55-6.09 41.25 41.25 0 0 0-.48-4.38c-.09-.7-.16-1.4-.22-2.1-.17-2.28-.39-4.55-.48-6.83a33.09 33.09 0 0 1 .19-3.85c.05-.76.28-1.51.27-2.27a16.21 16.21 0 0 1 .91-4.53 10.26 10.26 0 0 1 2.81-5A11.77 11.77 0 0 1 70.87 62c1.9-1 4-.88 6-.73a11.42 11.42 0 0 1 3.62 1A34.2 34.2 0 0 1 85.66 65a24.36 24.36 0 0 1 3.46 3.14c1 1.05 2 2.21 3 3.27a1.16 1.16 0 0 0 1.76-.32 4.29 4.29 0 0 0 .76-3.78 8 8 0 0 0-1-1.82 5.37 5.37 0 0 1-.6-3.51 6.84 6.84 0 0 1 1.96-3.9 5.82 5.82 0 0 1 6-1.83 6.23 6.23 0 0 1 4 2.91 7 7 0 0 1 1 4.55 18.62 18.62 0 0 1-1.44 4.29c-.69 1.81-1.45 3.59-2.19 5.38-.47 1.14-.94 2.29-1.47 3.4a9.68 9.68 0 0 1-4 4.69 7.2 7.2 0 0 1-4.76.84 9.44 9.44 0 0 1-4.73-2.51c-1.26-1.14-2.44-2.38-3.66-3.57a3.44 3.44 0 0 0-.27-.27c-1.62-1.18-1.74-1.18-3 .63a12.72 12.72 0 0 0-2.16 4.8 10.12 10.12 0 0 0 .68 7.06 10.76 10.76 0 0 0 2.68 3.17c1 .83 2 1.81 3 2.63a10.21 10.21 0 0 1 3.34 5.32 22.83 22.83 0 0 1 .55 3q.24 1.44.45 2.88c.24 1.68.46 3.36.7 5s.48 3.31.71 5c.15 1.13.3 2.27.41 3.41A1.11 1.11 0 0 1 89.8 120c-2.32 0-4.64-.07-7-.1a5.06 5.06 0 0 1-.53.06c-1.74-.2-1.74-.79-2-2.56-.29-1.61-.47-3.23-.68-4.85-.13-1-.22-2-.35-3-.25-1.85-.43-3.72-.81-5.54a6.07 6.07 0 0 0-1.2-2.25 16.39 16.39 0 0 0-1.84-1.79l-.27.11zm4.68-61.87A9.17 9.17 0 0 1 86.56 41 9.82 9.82 0 0 1 89 45a8.82 8.82 0 0 1-.08 6.1 9.7 9.7 0 0 1-6.52 6.17 3.51 3.51 0 0 1-1.79-.3 19.7 19.7 0 0 0-5.38-.97 3.38 3.38 0 0 1-2.34-1.46 9.88 9.88 0 0 1-2.21-4.07 9.65 9.65 0 0 1 .94-7.47 8.85 8.85 0 0 1 5.11-4.31c1-.3 2-.48 3-.71l.05.15z" fill="#fff"/><circle cx="79.5" cy="79.5" r="78.5" fill="none" stroke="#212869" stroke-linecap="round" stroke-width="2" stroke-dasharray="4 4"/></svg>