<svg xmlns="http://www.w3.org/2000/svg" width="147" height="147"><path fill="#212869" d="M73.5.781c40.161 0 72.719 32.557 72.719 72.719 0 40.161-32.558 72.719-72.719 72.719C33.338 146.219.781 113.66.781 73.5.781 33.338 33.338.781 73.5.781z"/><path fill="#fff" d="M44.03 60.953l3.97 2.29c5.02 2.89 10.077 5.717 15.045 8.69 3.876 2.32 8.012 3.495 12.508 2.92 3.146-.401 5.896-1.93 8.597-3.545 4.613-2.76 9.304-5.395 13.967-8.075a50.72 50.72 0 0 1 2.386-1.29c1.389-.705 1.498-1.098.546-2.288-.208-.26-.489-.463-.708-.667-.87.558-1.673 1.109-2.512 1.6-.71.415-1.428.362-1.928-.329-1.227-1.692-2.458-3.385-3.569-5.15-.196-.313.008-1.195.325-1.438 1.876-1.44 3.82-2.799 5.782-4.127 2.022-1.369 4.108-2.646 6.13-4.015.8-.54 1.554-.578 2.123.14 1.253 1.58 2.463 3.201 3.572 4.881.466.706.27 1.513-.504 2.06-.216.153-.415.327-.625.488-1.944 1.48-1.934 1.474-.531 3.516 2.175 3.168 4.335 6.346 6.505 9.517.354.518.812.599 1.338.25.752-.5 1.455-1.1 2.268-1.463.396-.177 1.245-.104 1.462.176 1.238 1.588 2.378 3.253 3.487 4.933.588.892.368 1.768-.5 2.363-3.908 2.676-7.835 5.326-11.729 8.02-.932.645-1.591.283-2.139-.42a91.638 91.638 0 0 1-2.842-3.889c-1.153-1.651-.96-2.577.692-3.692.586-.396 1.159-.812 1.715-1.204-.807-1.748-1.17-1.925-2.484-.864-4.37 3.53-9.247 6.431-13.22 10.457-1.942 1.969-4.124 3.709-6.113 5.637-.708.686-1.181 1.56-1.171 2.68.05 5.493.029 10.987.013 16.48-.002.55-.104 1.108-.224 1.65-.253 1.134-.97 1.739-2.113 1.74-6.908.012-13.815.015-20.722 0-1.606-.003-2.622-1.09-2.624-2.744-.006-5.19-.05-10.38.017-15.57.038-2.928-1.266-5.057-3.593-6.73-.524-.376-.972-.863-1.415-1.335-3.46-3.686-7.627-6.532-11.668-9.528-1.359-1.008-2.801-1.919-4.08-3.015-.985-.844-1.448-.17-1.961.42-.574.66-.153 1.041.474 1.385.46.252.839.64 1.27.945 1.078.76 1.4 1.66.721 2.657-1.051 1.542-2.228 3.003-3.353 4.497-.605.803-1.349.774-2.104.268a2127.29 2127.29 0 0 1-11.778-7.942c-.85-.577-.952-1.349-.352-2.223a393.58 393.58 0 0 1 3.386-4.868c.409-.577.87-.742 1.542-.235.744.564 1.621.954 2.385 1.496.502.356.761.305 1.106-.19 2.516-3.617 5.07-7.209 7.577-10.831.37-.535.57-1.11-.32-1.561-.762-.387-1.394-1.02-2.095-1.529-.658-.478-.684-1.05-.257-1.664 1.217-1.745 2.433-3.49 3.688-5.208.399-.545.985-.63 1.579-.242 3.934 2.569 7.874 5.129 11.792 7.722 1.13.748 1.35 1.9.632 2.996a147.465 147.465 0 0 1-2.833 4.163c-.703.997-1.511 1.122-2.53.434a20.458 20.458 0 0 1-1.541-1.137c-.602-.496-1.075-.694-1.478.225-.187.425-.566.767-.985 1.312zm40.246-3.586c.218 5.415-5.169 11.05-11.183 11.081-5 .026-11.739-4.553-11.11-12.249.345-4.236 5.227-9.91 10.94-9.909 5.93.002 11.543 5.545 11.353 11.077z"/></svg>