<svg xmlns="http://www.w3.org/2000/svg" width="147" height="147"><path fill="#212869" d="M73.5.781c40.161 0 72.719 32.557 72.719 72.719 0 40.161-32.558 72.719-72.72 72.719-40.16 0-72.718-32.558-72.718-72.72C.781 33.34 33.34.782 73.5.782z"/><path fill="#fff" d="M99.876 103.901a7.135 7.135 0 0 1-1.989 9.9 7.153 7.153 0 0 1-9.915-1.984l-9.867-14.792H61.129a7.147 7.147 0 0 1-7.119-6.469l-2.86-30.278a7.145 7.145 0 0 1 6.45-7.779c3.907-.4 7.417 2.513 7.789 6.438l.46 4.878 2.623 3.896 11.906 1.637a5.714 5.714 0 0 1 4.888 6.438 5.717 5.717 0 0 1-6.446 4.879l-11.53-1.586.347 3.667h14.296a7.156 7.156 0 0 1 5.953 3.182zM61.25 49.038c-5.268 0-9.536-4.262-9.536-9.52 0-5.256 4.268-9.518 9.536-9.518 5.264 0 9.532 4.262 9.532 9.519 0 5.257-4.268 9.52-9.532 9.52zm7.908 52.532c2.431 0 4.4 1.966 4.4 4.393a4.397 4.397 0 0 1-4.4 4.394H47.476a4.4 4.4 0 0 1-4.367-3.849l-4.075-33.597a4.397 4.397 0 0 1 3.82-4.905 4.383 4.383 0 0 1 4.912 3.815l3.594 29.75zm34.57-18.238c0 2.734.887 4.785 1.642 6.036.285.472-.216 1.03-.717.798-1.864-.866-4.538-2.807-4.538-6.834 0-6.025 3.962-6.581 3.962-10.818 0-2.382-.723-4.162-1.356-5.266-.264-.462.212-.995.705-.793 1.84.754 4.574 2.477 4.574 6.06 0 5.397-4.272 7.05-4.272 10.817zm-5.408-9.01c-1.864-.864-4.538-2.807-4.537-6.834 0-6.025 3.96-6.581 3.96-10.817 0-2.382-.722-4.163-1.355-5.267-.264-.461.212-.995.705-.793 1.84.754 4.573 2.478 4.573 6.06 0 5.397-4.271 7.05-4.271 10.817 0 2.734.886 4.785 1.642 6.036.285.472-.216 1.03-.717.798z"/></svg>