<svg xmlns="http://www.w3.org/2000/svg" width="147" height="147"><path fill="#212869" d="M73.5.784c40.16 0 72.716 32.556 72.716 72.716S113.66 146.216 73.5 146.216.784 113.66.784 73.5 33.34.784 73.5.784z"/><path fill="#fff" d="M74.362 81.74c-.23-.335-.393-.49-.456-.678-1.492-4.497-3.065-8.97-4.421-13.507-.771-2.58-2.056-4.72-4.06-6.498-.697-.618-1.275-.753-1.916-.016-1.342 1.546-2.864 2.98-3.955 4.686-.763 1.193-.941 2.757-1.368 4.159-.979 3.213-2.8 6.632-7.106 6.93-1.176.081-2.41.213-3.532-.046-1.272-.294-2.074.285-2.867.966-.69.592-1.23 1.352-1.86 2.016-.499.523-.459.985.075 1.435 1.027.865 2.044 1.74 3.093 2.579.216.173.548.272.83.282 2.639.095 5.289.347 7.915.199 4.832-.274 7.42-2.642 8.665-7.213.105-.387-.007-.827.034-1.238.038-.38.144-.755.22-1.133l.298-.042c.203.644.4 1.29.61 1.931 1.595 4.855 3.264 9.686 4.753 14.572.587 1.926 1.839 3.338 3.033 4.814.831 1.027 1.965 1.056 3.092.333 1.405-.901 2.324-2.23 2.904-3.71 1.544-3.938 2.958-7.926 4.437-11.89.173-.464.424-.9.63-1.331 1.094 1.186 2.08 2.304 3.118 3.37 1.428 1.468 3.301 1.557 5.186 1.53.48-.006.96-.17 1.439-.17 9.856-.012 19.713-.009 29.57-.01.722 0 1.482-.147 2.158.027 1.229.317 1.437 1.402.498 2.25-1.065.962-2.355 1.25-3.754 1.08-3.837-.47-7.573-.248-11.256 1.106-4.05 1.488-7.425 3.91-10.339 6.98-4.032 4.249-8.5 7.97-13.38 11.205-3.92 2.6-7.859 5.175-11.85 7.664-1.15.718-2.543.869-3.799.095-4.507-2.78-9.079-5.47-13.465-8.428-4.434-2.99-8.484-6.492-12.238-10.299-3.955-4.01-7.487-8.376-10.344-13.225-2.22-3.766-3.782-7.828-4.479-12.15-.336-2.086-.537-4.232-.453-6.338.204-5.132 1.343-10.05 4.592-14.206 2.636-3.372 6.03-5.685 10.13-7.167 3.423-1.237 6.886-1.486 10.39-1.231 3.188.232 6.117 1.453 8.687 3.401 3.603 2.732 5.992 6.355 7.807 10.416.187.417.647.878 1.06.972.274.063.765-.437 1.031-.782 1.357-1.758 2.608-3.6 4.019-5.312 2.022-2.455 4.277-4.685 7.033-6.355 2.263-1.37 4.594-2.403 7.322-2.666 3.895-.374 7.38.629 10.83 2.252 2.678 1.259 5.008 2.9 7.038 5.026 1.905 1.996 3.204 4.329 4.223 6.859 1.25 3.102 1.79 6.345 1.75 9.644-.045 3.707-.793 7.325-2.12 10.808-.24.629-.576.949-1.387.942-6.292-.052-12.586-.055-18.879-.013-1.895.013-3.105-.914-3.942-2.45-1.023-1.877-1.843-3.882-3.03-5.647-.666-.99-1.814-1.75-2.893-2.351-1.242-.693-3.127.296-3.95 2.048-.906 1.93-1.664 3.93-2.447 5.916-.97 2.46-1.898 4.935-2.924 7.61z"/><path fill="#fff" d="M75.141 81.437c-.213-.308-.365-.45-.423-.623-1.384-4.132-2.843-8.243-4.1-12.412-.715-2.37-1.907-4.338-3.766-5.971-.646-.568-1.182-.692-1.776-.015-1.245 1.421-2.656 2.74-3.668 4.306-.708 1.096-.873 2.534-1.269 3.822-.907 2.952-2.597 6.094-6.59 6.368-1.09.075-2.235.195-3.275-.043-1.18-.27-1.924.263-2.659.888-.64.545-1.14 1.243-1.726 1.853-.461.48-.424.905.071 1.318.952.795 1.896 1.6 2.868 2.37.2.16.508.25.77.26 2.447.087 4.905.319 7.34.182 4.48-.251 6.88-2.427 8.035-6.628.098-.355-.005-.76.032-1.137.035-.35.134-.694.205-1.041l.276-.039c.188.592.37 1.185.566 1.775 1.479 4.46 3.026 8.9 4.407 13.39.544 1.77 1.706 3.068 2.813 4.423.771.945 1.822.971 2.867.307 1.304-.829 2.156-2.049 2.694-3.409 1.432-3.619 2.743-7.284 4.114-10.926.16-.427.394-.827.585-1.224 1.015 1.09 1.929 2.117 2.891 3.098 1.325 1.348 3.062 1.43 4.81 1.405.445-.006.89-.156 1.334-.157 9.14-.01 18.282-.007 27.422-.008.67 0 1.375-.136 2.002.024 1.14.292 1.333 1.289.462 2.068-.988.884-2.184 1.15-3.481.992-3.559-.432-7.024-.227-10.439 1.016-3.756 1.368-6.886 3.594-9.588 6.415a71.389 71.389 0 0 1-12.408 10.296c-3.636 2.39-7.289 4.755-10.99 7.043-1.066.66-2.358.798-3.523.087-4.18-2.555-8.42-5.026-12.488-7.744-4.112-2.748-7.868-5.966-11.35-9.464-3.667-3.685-6.942-7.697-9.592-12.153-2.058-3.46-3.507-7.193-4.153-11.165-.312-1.916-.499-3.89-.42-5.824.189-4.716 1.245-9.235 4.258-13.055 2.444-3.098 5.591-5.223 9.395-6.585 3.174-1.137 6.385-1.366 9.635-1.132 2.956.214 5.672 1.336 8.056 3.126 3.341 2.51 5.557 5.84 7.24 9.571.174.384.6.807.984.894.253.057.709-.402.956-.719 1.258-1.615 2.418-3.308 3.726-4.882 1.876-2.256 3.967-4.305 6.523-5.839 2.099-1.259 4.26-2.208 6.79-2.45 3.612-.343 6.844.578 10.044 2.07 2.483 1.156 4.644 2.664 6.526 4.618 1.767 1.835 2.972 3.978 3.917 6.303 1.16 2.85 1.66 5.83 1.623 8.862-.042 3.407-.735 6.731-1.966 9.931-.222.578-.534.872-1.286.866a1180.13 1180.13 0 0 0-17.508-.011c-1.758.011-2.88-.84-3.656-2.252-.95-1.725-1.71-3.567-2.81-5.189-.618-.91-1.682-1.608-2.683-2.16-1.152-.637-2.9.271-3.663 1.882-.84 1.773-1.544 3.612-2.27 5.436-.899 2.26-1.76 4.534-2.71 6.992z"/></svg>