<svg xmlns="http://www.w3.org/2000/svg" viewBox="0 0 121.91 121.91"><path d="M61.36 5.78A55.54 55.54 0 1 1 5.81 61.32 55.54 55.54 0 0 1 61.36 5.78z" fill="#212869"/><path d="M62.71 65.77c-.14-.21-.25-.3-.28-.42-1-2.8-1.94-5.6-2.8-8.43a8.36 8.36 0 0 0-2.56-4.05c-.44-.39-.8-.47-1.21 0a25.31 25.31 0 0 0-2.49 2.92 10.07 10.07 0 0 0-.87 2.6c-.62 2-1.77 4.14-4.48 4.32a7.91 7.91 0 0 1-2.23 0 1.92 1.92 0 0 0-1.81.61 15.55 15.55 0 0 0-1.18 1.25.54.54 0 0 0 .05.9c.65.54 1.29 1.08 1.95 1.61a1 1 0 0 0 .53.17c1.66.06 3.33.22 5 .13 3-.17 4.69-1.65 5.47-4.5a4 4 0 0 0 0-.78c0-.23.1-.47.14-.7h.19c.13.4.25.81.39 1.21 1 3 2.06 6 3 9.09a9 9 0 0 0 1.91 3 1.37 1.37 0 0 0 2 .21 4.7 4.7 0 0 0 1.84-2.32c1-2.45 1.86-4.94 2.8-7.41a7.07 7.07 0 0 1 .4-.83c.68.74 1.31 1.43 2 2.1a4.17 4.17 0 0 0 3.28 1c.3 0 .6-.1.91-.1h18.58a5.6 5.6 0 0 1 1.36 0c.78.19.91.87.32 1.4a2.87 2.87 0 0 1-2.37.67 15.22 15.22 0 0 0-7.11.69 17.07 17.07 0 0 0-6.52 4.36 48.77 48.77 0 0 1-8.45 7q-3.7 2.33-7.47 4.66a2.24 2.24 0 0 1-2.4.06c-2.84-1.73-5.73-3.41-8.5-5.26a50.5 50.5 0 0 1-7.72-6.42 42.5 42.5 0 0 1-6.53-8.25A21.62 21.62 0 0 1 35 58.68a20.26 20.26 0 0 1-.29-4 14.76 14.76 0 0 1 2.9-8.86A13.8 13.8 0 0 1 44 41.39a15.8 15.8 0 0 1 6.56-.77 10.32 10.32 0 0 1 5.48 2.12 16.24 16.24 0 0 1 4.96 6.5 1.17 1.17 0 0 0 .67.61c.17 0 .48-.28.65-.49.85-1.1 1.64-2.25 2.53-3.32a17.69 17.69 0 0 1 4.44-4 10.75 10.75 0 0 1 4.63-1.66 12.91 12.91 0 0 1 6.83 1.4A14.67 14.67 0 0 1 85.18 45a12.91 12.91 0 0 1 2.67 4.28 15.33 15.33 0 0 1 1.11 6A19.36 19.36 0 0 1 87.62 62a.79.79 0 0 1-.88.58H74.83a2.66 2.66 0 0 1-2.49-1.53c-.65-1.17-1.17-2.43-1.92-3.53a5.25 5.25 0 0 0-1.82-1.46c-.79-.44-2 .18-2.5 1.28s-1 2.45-1.54 3.69c-.56 1.53-1.2 3.07-1.85 4.74z" fill="#fff"/><circle cx="60.96" cy="60.96" r="59.96" fill="none" stroke="#212869" stroke-linecap="round" stroke-width="2" stroke-dasharray="4 4"/></svg>