<svg xmlns="http://www.w3.org/2000/svg" viewBox="0 0 121.91 121.91"><path d="M60.75 5.59A55.54 55.54 0 1 1 5.2 61.13 55.55 55.55 0 0 1 60.75 5.59z" fill="#212869"/><path d="M63.08 40.76c.71.11 1.43.17 2.12.34 6.63 1.56 10.8 5.65 12.58 12.22a18.9 18.9 0 0 1 .42 5.36 1.24 1.24 0 0 1-2.48 0c0-1 0-2-.09-2.95a13.31 13.31 0 0 0-4.46-8.9 13 13 0 0 0-7.45-3.43 13.45 13.45 0 0 0-11.89 4.42 13.16 13.16 0 0 0-3.43 7.5 30.72 30.72 0 0 0-.11 3.19 1.26 1.26 0 1 1-2.5 0 18.28 18.28 0 0 1 .67-6.07 16 16 0 0 1 11.93-11.25c.83-.21 1.69-.29 2.53-.43zm-7.81 42.57a1.3 1.3 0 0 1-1-1.3 1.18 1.18 0 0 1 .8-1.11 24.29 24.29 0 0 0 6.14-3.31 1.18 1.18 0 0 1 1.5 0 25.07 25.07 0 0 0 6.17 3.34 1.16 1.16 0 0 1 .77 1.13 1.22 1.22 0 0 1-.65 1.15l-.22.1h-.64a25.41 25.41 0 0 1-5.87-3c-.21-.15-.34 0-.51 0-1.09.64-2.17 1.3-3.3 1.89-.82.43-1.7.75-2.56 1.11zM49 40.76l.2.13a1.24 1.24 0 0 1-.57 2.37h-5.41v5.19a1.29 1.29 0 0 1-1 1.43 1.25 1.25 0 0 1-1.43-.88h-.07v-7.32a2 2 0 0 1 .92-.92zM83.27 49l-.12.19a1.24 1.24 0 0 1-2.36-.57v-5.34h-5.2a1.29 1.29 0 0 1-1.43-1 1.24 1.24 0 0 1 .84-1.45v-.07h7.31a1.89 1.89 0 0 1 .91.92zM40.72 75.1a1.37 1.37 0 0 0 .13-.2 1.28 1.28 0 0 1 1.38-.69 1.25 1.25 0 0 1 1 1.27v5.36h5.19a1.3 1.3 0 0 1 1.43 1 1.27 1.27 0 0 1-.85 1.43v.06h-7.36a1.94 1.94 0 0 1-.92-.91zm34.33 8.23l-.2-.12a1.24 1.24 0 0 1 .57-2.37h5.36v-5.2a1.31 1.31 0 0 1 1-1.43 1.25 1.25 0 0 1 1.43.85h.07v7.32a1.94 1.94 0 0 1-.92.91zM65.8 58a14.89 14.89 0 0 0-.22-2 3.71 3.71 0 0 0-4-2.73 3.77 3.77 0 0 0-3.33 3.69A20.78 20.78 0 0 1 58 61a11.28 11.28 0 0 1-9.14 8.74 17.56 17.56 0 0 1-1.78.16 1.25 1.25 0 0 1-1.31-1.22 1.26 1.26 0 0 1 1.3-1.27 8.67 8.67 0 0 0 8.46-6.88 13.23 13.23 0 0 0 .21-2.6 8.38 8.38 0 0 1 .48-3.29 6.22 6.22 0 0 1 11.87 1.22 12.81 12.81 0 0 1 .11 2.48A8.71 8.71 0 0 0 71 65a8.56 8.56 0 0 0 5.85 2.4 1.25 1.25 0 1 1 0 2.49 11.22 11.22 0 0 1-10.87-9.38c-.13-.82-.16-1.65-.23-2.48zm4.91-.05A8.81 8.81 0 0 0 69 51.8a8.71 8.71 0 0 0-15.56 3.6 17 17 0 0 0-.17 3.19 6.23 6.23 0 0 1-4.64 6.06 7.07 7.07 0 0 1-1.59.21 1.23 1.23 0 0 1-1.26-1.22A1.27 1.27 0 0 1 47 62.38a3.72 3.72 0 0 0 3.75-4 13.81 13.81 0 0 1 .67-5.23 10.89 10.89 0 0 1 9.41-7.36A11.09 11.09 0 0 1 73 54.93a26.45 26.45 0 0 1 .21 3.68A3.63 3.63 0 0 0 75.43 62a4.63 4.63 0 0 0 1.48.34 1.29 1.29 0 0 1 1.29 1.29 1.25 1.25 0 0 1-1.31 1.21 6.22 6.22 0 0 1-6.08-5.31c-.08-.6-.08-1.22-.1-1.62zm-8.72 7c-.13.29-.23.53-.35.76a16 16 0 0 1-11.9 8.93 7 7 0 0 1-1.11.15 1.22 1.22 0 0 1-1.29-1.14 1.24 1.24 0 0 1 1.14-1.3A13.65 13.65 0 0 0 60.67 60c.09-.94.07-1.88.08-2.82A1.27 1.27 0 0 1 62 55.73a1.26 1.26 0 0 1 1.25 1.4 16.11 16.11 0 0 0 .51 5.18 13.52 13.52 0 0 0 10.7 9.81c.31.06.63.12.94.15a1.26 1.26 0 1 1-.27 2.48 16.26 16.26 0 0 1-13-9.49zM73.47 78a1.21 1.21 0 0 1-1.2 1.25 1 1 0 0 1-.35 0 21.18 21.18 0 0 1-10.75-6.45 1.26 1.26 0 0 1 0-1.87 1.29 1.29 0 0 1 1.87.22 18.63 18.63 0 0 0 8.77 5.49c.28.08.56.14.84.23a1.21 1.21 0 0 1 .82 1.13zm-15.36-4.11a1.29 1.29 0 0 1 1.32.88 1.18 1.18 0 0 1-.5 1.41 19.84 19.84 0 0 1-4.28 2.24c-.79.29-1.6.53-2.41.76a1.24 1.24 0 0 1-1.52-.84 1.29 1.29 0 0 1 .91-1.55c1.11-.38 2.23-.72 3.3-1.19.88-.39 1.68-.94 2.53-1.4a5.87 5.87 0 0 1 .65-.31z" fill="#fff"/><circle cx="60.96" cy="60.96" r="59.96" fill="none" stroke="#212869" stroke-linecap="round" stroke-width="2" stroke-dasharray="4 4"/></svg>