<svg xmlns="http://www.w3.org/2000/svg" width="19" height="32" viewBox="0 0 19 32"><g><g><path fill="#ef3e36" d="M18.058.95c.627.633.942 1.382.942 2.25v25.602c0 .867-.315 1.617-.942 2.251-.626.633-1.368.95-2.225.95H3.166c-.859 0-1.6-.317-2.227-.95-.627-.634-.94-1.384-.94-2.25V3.2c0-.868.313-1.617.94-2.25C1.566.315 2.307 0 3.166 0h12.667c.857 0 1.6.315 2.225.95zM7.518 3.2c-.261 0-.395.134-.395.4 0 .267.134.4.396.4h3.959c.264 0 .396-.133.396-.4 0-.266-.132-.4-.396-.4zm3.379 27.016c.388-.393.58-.864.58-1.414 0-.55-.192-1.02-.58-1.412a1.896 1.896 0 0 0-1.399-.588c-.544 0-1.01.196-1.396.588a1.936 1.936 0 0 0-.583 1.412c0 .55.194 1.02.583 1.414.387.39.852.587 1.396.587.546 0 1.012-.197 1.399-.587zM16.624 7.2a.774.774 0 0 0-.235-.563.757.757 0 0 0-.556-.237H3.166c-.215 0-.4.08-.558.237a.778.778 0 0 0-.234.563v17.6c0 .218.079.405.234.564a.762.762 0 0 0 .558.237h12.667c.213 0 .399-.08.556-.237a.773.773 0 0 0 .235-.564z"/></g></g></svg>