<svg xmlns="http://www.w3.org/2000/svg" width="16" height="22" viewBox="0 0 16 22"><g><g><path fill="#ef3e36" d="M15.999 22.002h-4.833l-.635-3.154a2.247 2.247 0 0 0-.139-.43 2.577 2.577 0 0 0-2.132-1.536c-.012 0-.024-.005-.036-.005h-.019c-.053 0-.108-.006-.156-.006l-.069.001h-.07c-.048 0-.103.005-.157.005h-.018c-.011 0-.025.005-.036.005-1.124.107-2.036.913-2.271 1.966l-.635 3.154H.001L3.745 6.191l-.005-.012h-.003L2.321 3.142l-.005-.012h.004l-.012-.03L1.915.318a47.208 47.208 0 0 1 2.548-.21V.106l.003.003h.004l.63.42.39 2.317.743-.023h.013l.086-.003.103-2.808a75.04 75.04 0 0 1 1.546-.017h.007c.518 0 1.032.007 1.545.017l.104 2.853.026.001h.002l.836.038.001-.008.379-2.36.613-.407.004-.02-.002.002.002-.005a47.44 47.44 0 0 1 2.585.212l-.02.142-.372 2.64-1.437 3.09v.002zm-6.403-8.31l-1.027-4.83c-.067-.336-.248-.512-.538-.512l-.045.001a.56.56 0 0 0-.046-.001c-.29 0-.47.176-.537.512L6.38 13.68l-.003.013z"/></g></g></svg>