<svg xmlns="http://www.w3.org/2000/svg" width="24" height="24" viewBox="0 0 24 24"><g><g><path fill="#ef3e36" d="M13.29 13.225c.384.223.651.76.651 1.208 0 .484-.217.99-.6 1.249-.42.293-1.037.259-1.521.259h-1.31v-2.94h1.427c.435 0 .97 0 1.354.224zm-.538-2.51c-.4.31-.952.275-1.42.275h-.822V8.403h.621c.452 0 1.154-.052 1.538.171.368.225.568.639.568 1.07 0 .398-.167.829-.485 1.07zM19.778-.002a4.219 4.219 0 0 1 4.218 4.218v15.562a4.22 4.22 0 0 1-4.218 4.218H4.217a4.219 4.219 0 0 1-4.219-4.218V4.217A4.218 4.218 0 0 1 4.217-.001zm-7.13 18.132c2.991 0 4.163-1.867 4.163-3.59 0-1.86-1.014-2.632-2.434-2.926v-.034c.957-.287 1.709-1.207 1.709-2.553 0-1.743-1.432-2.73-2.983-2.73H7.745v11.833z"/></g></g></svg>