<svg xmlns="http://www.w3.org/2000/svg" width="26" height="22" viewBox="0 0 26 22"><g><g><path fill="#ef3e36" d="M22.42 11.28s.485-.385.485.403v5.067C22.905 19.276 18.47 22 13 22s-9.906-2.724-9.906-5.25v-4.797c0-.981.682-.548.682-.548l7.555 4.803c.463.294 1.056.456 1.67.456.612 0 1.205-.162 1.668-.456zm-8.365 3.621c-.58.37-1.53.37-2.11 0L.434 7.585c-.58-.37-.58-.973 0-1.342L11.945.277c.58-.37 1.53-.37 2.11 0l11.51 5.966c.58.369.58.973 0 1.342L14.054 14.9zm11.033 3.529c0 .104.084.152.124.176.4.242.67.69.67 1.206 0 .771-.604 1.396-1.348 1.396-.743 0-1.346-.625-1.346-1.396 0-.513.267-.96.665-1.203.041-.025.128-.075.128-.18v-7.337s-.04-.354.135-.512c.152-.137.583-.386.759-.487.219-.127.213.256.213.256z"/></g></g></svg>