<svg xmlns="http://www.w3.org/2000/svg" width="19" height="26" viewBox="0 0 19 26">
  <defs>
    <style>
      .cls-1 {
        fill: #ef3e36;
        fill-rule: evenodd;
      }
    </style>
  </defs>
  <path id="home_-_active" data-name="home - active" class="cls-1" d="M21.564,21.329v0l1.707-3.647,0.442-3.117,0.024-.167c-1.01-.111-2.03-0.194-3.072-0.251V14.15h0l0,0.023-0.73.479-0.45,2.785h0v0.009L18.487,17.4h0l-0.03,0-0.124-3.368c-0.61-.013-1.219-0.021-1.836-0.021H16.487c-0.618,0-1.227.008-1.837,0.021l-0.122,3.315-0.1,0H14.41l-0.884.026-0.463-2.735-0.747-.5H12.311l0,0v0c-1.024.056-2.03,0.139-3.027,0.248L9.748,17.68l0.014,0.035h0L9.762,17.73l1.682,3.585h0l0.006,0.015L7.006,40H12.7l0.753-3.721a3.038,3.038,0,0,1,2.7-2.322c0.014,0,.03-0.006.042-0.006h0.023c0.063,0,.128-0.008.185-0.008h0.166c0.056,0,.122.008,0.184,0.008h0.022c0.015,0,.029.006,0.044,0.006a3.06,3.06,0,0,1,2.533,1.812,2.718,2.718,0,0,1,.165.51L20.272,40h5.741ZM14.58,30.186l0-.014,1.217-5.69a0.633,0.633,0,0,1,.637-0.6h0.108a0.635,0.635,0,0,1,.639.6l1.221,5.7H14.58Z" transform="translate(-7 -14)"/>
</svg>
