<svg xmlns="http://www.w3.org/2000/svg" width="27" height="27" viewBox="0 0 27 27">
  <defs>
    <style>
      .cls-1 {
        fill: #ef3e36;
        fill-rule: evenodd;
      }
    </style>
  </defs>
  <path class="cls-1" d="M253,12.5A13.5,13.5,0,1,0,266.5,26,13.5,13.5,0,0,0,253,12.5h0Zm7.129,19.7-1.081,1.081a2,2,0,0,1-.776.313,12.749,12.749,0,0,1-12.866-12.9,2.021,2.021,0,0,1,.316-0.741l1.082-1.081a1.806,1.806,0,0,1,1.687-.4l0.228,0.076a2.137,2.137,0,0,1,1.234,1.305l0.544,2a1.958,1.958,0,0,1-.447,1.709l-0.722.722a7.667,7.667,0,0,0,5.391,5.392l0.722-.722a1.954,1.954,0,0,1,1.709-.448l2,0.546a2.134,2.134,0,0,1,1.305,1.232l0.076,0.231a1.8,1.8,0,0,1-.4,1.684h0Zm0,0" transform="translate(-239.5 -12.5)"/>
</svg>
