<svg xmlns="http://www.w3.org/2000/svg" width="201" height="200" viewBox="0 0 201 200"><defs><clipPath id="2yq7a"><path fill="#fff" d="M100.219 0C155.464 0 200.25 44.757 200.25 99.968c0 55.212-44.786 99.97-100.031 99.97C44.973 199.937.187 155.18.187 99.967.187 44.758 44.973 0 100.22 0z"/></clipPath></defs><g><g><path fill="#212869" d="M100.219 7.343c51.19 0 92.687 41.47 92.687 92.625 0 51.156-41.497 92.625-92.687 92.625S7.53 151.124 7.53 99.968c0-51.155 41.498-92.625 92.688-92.625z"/></g><g><path fill="none" stroke="#212869" stroke-dasharray="4 4" stroke-linecap="round" stroke-miterlimit="50" stroke-width="4" d="M100.219 0C155.464 0 200.25 44.757 200.25 99.968c0 55.212-44.786 99.97-100.031 99.97C44.973 199.937.187 155.18.187 99.967.187 44.758 44.973 0 100.22 0z" clip-path="url(&quot;#2yq7a&quot;)"/></g><g><path fill="#fff" d="M83.643 150.997s-9.634 0-9.634-9.271V58.27c0-9.272 9.634-9.272 9.634-9.272h33.72s9.635 0 9.635 9.272v83.455c0 9.271-9.634 9.271-9.634 9.271zm21.678-8.49c0-2.554-2.158-4.628-4.818-4.628-2.659 0-4.817 2.074-4.817 4.628 0 2.556 2.158 4.63 4.817 4.63 2.66 0 4.818-2.074 4.818-4.63zM93.278 54.924c0 .564.288 1.023.64 1.023h13.17c.352 0 .641-.449.641-1.023v-.273c0-.565-.289-1.022-.64-1.022h-13.17c-.357 0-.641.449-.641 1.022zM78.826 134.64h43.355V60.572H78.826z"/></g></g></svg>