<svg xmlns="http://www.w3.org/2000/svg" width="157" height="157" viewBox="0 0 157 157"><defs><clipPath id="u7vja"><path fill="#fff" d="M78.5 0C121.854 0 157 35.146 157 78.5S121.854 157 78.5 157 0 121.854 0 78.5 35.146 0 78.5 0z"/></clipPath></defs><g><g><path fill="#212869" d="M78.5 5.781c40.161 0 72.719 32.557 72.719 72.719 0 40.161-32.558 72.719-72.719 72.719-40.162 0-72.719-32.558-72.719-72.72 0-40.16 32.557-72.718 72.719-72.718z"/></g><g><path fill="none" stroke="#212869" stroke-dasharray="4 4" stroke-linecap="round" stroke-miterlimit="50" stroke-width="4" d="M78.5 0C121.854 0 157 35.146 157 78.5S121.854 157 78.5 157 0 121.854 0 78.5 35.146 0 78.5 0z" clip-path="url(&quot;#u7vja&quot;)"/></g><g><path fill="#fff" d="M115.77 91.205c-.518.852-.888 1.63-1.419 2.276-.327.399-.878.804-1.364.851-2.584.25-5.126.326-7.722-.407-2.569-.726-5.01-1.607-7.223-3.072-2.358-1.561-4.068-3.735-5.553-6.103-.139-.221-.285-.505-.498-.597-.303-.13-.698-.203-1.002-.117-.16.044-.268.47-.303.737-.31 2.417-.624 4.834-.882 7.257-.128 1.206-.165 2.424-.197 3.638-.035 1.294-.391 1.87-1.63 2.291-1.655.563-3.305 1.154-4.992 1.603-2.905.773-5.838.666-8.74-.05-1.327-.327-2.616-.806-3.936-1.165-1.894-.516-2.324-1.887-2.461-3.647-.257-3.281-.673-6.55-1.073-9.818-.04-.325-.39-.804-.661-.853-.276-.05-.715.276-.94.553-1.09 1.346-2.008 2.856-3.223 4.073-1.764 1.768-3.75 3.315-6.184 4.117-1.658.546-3.335 1.035-5.009 1.535-.222.067-.471.047-.708.062-.946.06-1.892.17-2.838.164a22.203 22.203 0 0 1-2.922-.207c-.634-.088-2.183-2.29-2.056-2.914.044-.216.42-.447.686-.522 1.879-.532 3.78-.99 5.654-1.538 3.702-1.084 6.676-3.155 8.349-6.71.95-2.022 1.653-4.16 2.455-6.251 1.066-2.778 2.048-5.59 3.205-8.33.737-1.744 2.125-2.967 3.953-3.551.399-.128 1.024.04 1.392.292 2.078 1.43 4.34 2.4 6.814 2.85 1.326.24 2.678.547 4.01.513 2.979-.077 5.876-.66 8.526-2.122.841-.463 1.622-1.044 2.486-1.453.39-.184.982-.239 1.372-.08 1.926.78 3.32 2.094 4.068 4.104.917 2.46 1.987 4.862 2.928 7.313.626 1.631 1.116 3.314 1.714 4.956 1.356 3.724 3.807 6.444 7.596 7.751 2.422.836 4.922 1.445 7.385 2.166.274.08.529.225.942.405zm-61.887 25.374c2.522-.76 4.788-1.427 7.037-2.145.27-.086.654-.482.626-.685-.052-.37-.29-.86-.596-1.02-.845-.443-1.804-.667-2.649-1.11-2.607-1.367-5.234-2.71-7.742-4.244a4.037 4.037 0 0 1-1.903-2.946c-.06-.476-.18-.944-.271-1.415.483-.073.966-.149 1.45-.217 3.048-.432 6.047-1.055 8.877-2.316.264-.118.533-.231.777-.383.829-.518 1.037-.474 1.485.402 1.294 2.529 3.345 4.126 5.958 5.21 2.42 1.003 4.881 1.865 7.457 2.184 2.1.26 4.254.177 6.379.102 1.492-.052 3.015-.191 4.454-.563 3.58-.923 7.181-1.901 9.803-4.782.62-.68 1.117-1.496 1.554-2.313.341-.636.598-.8 1.338-.494 1.585.655 3.241 1.138 4.862 1.71a19.521 19.521 0 0 0 6.04 1.1c.183.005.51.407.509.622-.011 1.17-.306 2.304-1.181 3.117-.967.898-1.957 1.849-3.105 2.459-2.605 1.383-5.323 2.553-7.968 3.862-.354.175-.726.627-.79 1.002-.1.6.444.64.944.77 1.412.367 2.791.86 4.188 1.29.585.178 1.179.332 1.774.474.714.17.725.59.402 1.106-.466.744-.911 1.51-1.467 2.183-.222.269-.731.48-1.078.44-3.33-.374-6.647-.886-9.982-1.204-4.01-.381-7.967-1.047-11.923-1.769-.765-.139-1.619.2-2.43.322-1.973.295-3.943.61-5.92.882-2.735.375-5.473.746-8.216 1.063-1.585.183-3.235.047-4.76.43-1.781.448-2.513-.461-3.188-1.744-.231-.44-.472-.874-.745-1.38zm36.435-68.095c-.033 6.238-5.063 11.53-11.484 11.455-6.619-.078-11.234-4.924-11.283-11.35-.05-6.657 4.677-11.724 11.68-11.572 6.054.132 11.05 5.014 11.087 11.467z"/></g></g></svg>