<svg xmlns="http://www.w3.org/2000/svg" viewBox="0 0 159 159"><defs><style>.a{fill:#212869;}.b{fill:#fff;}.c{fill:none;stroke:#212869;stroke-linecap:round;stroke-width:2px;stroke-dasharray:4 4;}</style></defs><title>round-sit</title><path class="a" d="M79.5,6.78A72.72,72.72,0,1,1,6.78,79.5,72.72,72.72,0,0,1,79.5,6.78Z"/><path class="b" d="M105.88,109.9a7.16,7.16,0,0,1-2,9.9h0a7.16,7.16,0,0,1-9.92-2L84.11,103h-17A7.15,7.15,0,0,1,60,96.56L57.15,66.28A7.15,7.15,0,0,1,63.6,58.5h0a7.14,7.14,0,0,1,7.79,6.44l.46,4.87,2.62,3.9,11.91,1.64a5.72,5.72,0,0,1,4.89,6.43h0a5.73,5.73,0,0,1-6.45,4.88L73.29,85.08l.35,3.67H87.93a7.17,7.17,0,0,1,6,3.18ZM67.25,55a9.52,9.52,0,1,1,9.53-9.52A9.53,9.53,0,0,1,67.25,55Zm7.91,52.53a4.4,4.4,0,1,1,0,8.79H53.48a4.4,4.4,0,0,1-4.37-3.85L45,78.91a4.4,4.4,0,0,1,8.73-1.12v0l3.59,29.75Zm34.57-18.24a11.58,11.58,0,0,0,1.64,6,.56.56,0,0,1-.72.8,7.31,7.31,0,0,1-4.54-6.84c0-6,4-6.58,4-10.82a10.52,10.52,0,0,0-1.36-5.26.56.56,0,0,1,.71-.79c1.84.75,4.57,2.47,4.57,6.05,0,5.4-4.27,7.06-4.27,10.82Zm-5.41-9a7.29,7.29,0,0,1-4.54-6.83c0-6,4-6.58,4-10.82a10.61,10.61,0,0,0-1.35-5.27.56.56,0,0,1,.7-.79c1.84.76,4.58,2.48,4.58,6.06,0,5.4-4.28,7-4.28,10.82a11.56,11.56,0,0,0,1.65,6,.56.56,0,0,1-.72.8Z"/><circle class="c" cx="79.5" cy="79.5" r="78.5"/></svg>