<svg xmlns="http://www.w3.org/2000/svg" width="201" height="200" viewBox="0 0 201 200"><defs><clipPath id="u0iwa"><path fill="#fff" d="M100.375 0c55.246 0 100.031 44.757 100.031 99.968 0 55.212-44.785 99.97-100.031 99.97C45.129 199.937.344 155.18.344 99.967.344 44.758 45.129 0 100.375 0z"/></clipPath></defs><g><g><path fill="#212869" d="M100.422 7.343c51.181 0 92.672 41.47 92.672 92.625 0 51.156-41.491 92.625-92.672 92.625S7.75 151.124 7.75 99.968c0-51.155 41.49-92.625 92.672-92.625z"/></g><g><path fill="none" stroke="#212869" stroke-dasharray="4 4" stroke-linecap="round" stroke-miterlimit="50" stroke-width="4" d="M100.375 0c55.246 0 100.031 44.757 100.031 99.968 0 55.212-44.785 99.97-100.031 99.97C45.129 199.937.344 155.18.344 99.967.344 44.758 45.129 0 100.375 0z" clip-path="url(&quot;#u0iwa&quot;)"/></g><g><path fill="#fff" d="M102.685 107.391c-.241-.348-.414-.509-.48-.705-1.571-4.679-3.228-9.334-4.656-14.055-.812-2.684-2.165-4.912-4.277-6.762-.734-.642-1.342-.782-2.017-.015-1.414 1.608-3.016 3.1-4.165 4.875-.804 1.241-.991 2.869-1.44 4.327-1.032 3.344-2.95 6.902-7.485 7.211-1.238.085-2.538.221-3.72-.048-1.339-.305-2.184.297-3.019 1.006-.726.617-1.296 1.407-1.96 2.097-.524.545-.482 1.025.08 1.493 1.082.9 2.153 1.812 3.257 2.684.228.18.577.283.875.294 2.779.099 5.57.361 8.335.206 5.089-.285 7.814-2.748 9.126-7.505.11-.403-.007-.86.036-1.288.04-.396.152-.786.232-1.179l.314-.043c.213.67.42 1.342.642 2.01 1.68 5.05 3.437 10.078 5.005 15.162.619 2.004 1.937 3.473 3.195 5.009.875 1.069 2.07 1.099 3.256.346 1.48-.938 2.448-2.32 3.059-3.86 1.626-4.098 3.115-8.248 4.672-12.372.182-.483.447-.936.665-1.385 1.152 1.234 2.19 2.397 3.283 3.507 1.504 1.527 3.477 1.62 5.462 1.592.506-.007 1.01-.178 1.515-.178 10.38-.011 20.761-.009 31.141-.009.761 0 1.562-.154 2.274.027 1.294.33 1.514 1.46.524 2.342-1.121 1-2.48 1.301-3.953 1.123-4.041-.49-7.976-.258-11.855 1.15-4.265 1.55-7.82 4.07-10.888 7.264-4.247 4.421-8.953 8.292-14.091 11.66-4.129 2.705-8.277 5.384-12.481 7.974-1.21.747-2.678.904-4 .099-4.747-2.893-9.562-5.691-14.182-8.77-4.67-3.111-8.935-6.755-12.889-10.716-4.165-4.173-7.884-8.715-10.893-13.761-2.338-3.919-3.983-8.146-4.717-12.643-.354-2.17-.566-4.404-.478-6.595.216-5.34 1.415-10.457 4.837-14.783 2.776-3.508 6.35-5.914 10.669-7.457 3.605-1.287 7.251-1.546 10.942-1.28 3.357.241 6.442 1.51 9.148 3.538 3.795 2.843 6.311 6.614 8.223 10.839.196.434.681.914 1.116 1.012.289.064.806-.455 1.086-.815 1.43-1.828 2.746-3.745 4.232-5.527 2.13-2.555 4.505-4.875 7.408-6.612 2.383-1.426 4.838-2.501 7.711-2.774 4.102-.39 7.771.653 11.406 2.343 2.82 1.31 5.274 3.016 7.411 5.23 2.007 2.077 3.374 4.504 4.448 7.136 1.317 3.229 1.886 6.603 1.843 10.036-.047 3.857-.835 7.621-2.232 11.245-.253.655-.607.988-1.461.98-6.627-.053-13.255-.056-19.883-.012-1.996.013-3.27-.952-4.151-2.55-1.078-1.953-1.942-4.04-3.192-5.875-.701-1.03-1.91-1.821-3.046-2.447-1.309-.721-3.294.308-4.16 2.131-.954 2.009-1.753 4.09-2.578 6.155-1.02 2.56-1.999 5.136-3.079 7.918z"/></g></g></svg>