<svg xmlns="http://www.w3.org/2000/svg" width="112" height="112" viewBox="0 0 112 112"><g><g><path fill="#212869" d="M55.953.387c30.678 0 55.547 24.865 55.547 55.537 0 30.673-24.87 55.538-55.547 55.538-30.678 0-55.547-24.865-55.547-55.538C.406 25.252 25.276.387 55.953.387z"/></g><g><path fill="#fff" d="M54.984 36.226c8.375 0 15.19 6.848 15.192 15.264a14.94 14.94 0 0 1-1.33 6.233c-3.798 8.352-11.08 17.169-13.221 19.672a.842.842 0 0 1-1.28 0c-2.142-2.503-9.425-11.322-13.223-19.672a14.969 14.969 0 0 1-1.328-6.233c0-8.416 6.815-15.264 15.19-15.264zm0 23.194c4.35 0 7.89-3.558 7.89-7.93 0-4.371-3.54-7.929-7.89-7.929s-7.891 3.558-7.891 7.93c0 4.371 3.54 7.929 7.89 7.929zm-13.46 3.684c-2.496 3.797-5.155 7.007-6.188 8.215a.619.619 0 0 1-.941 0c-1.576-1.841-6.93-8.325-9.723-14.465a11.008 11.008 0 0 1-.977-4.583c0-6.19 5.011-11.225 11.17-11.225 1.941 0 3.767.502 5.36 1.382a17.322 17.322 0 0 0-2.07 5.045 5.744 5.744 0 0 0-3.29-1.033c-3.2 0-5.803 2.616-5.803 5.83 0 3.215 2.604 5.832 5.802 5.832 1.38 0 2.647-.49 3.645-1.3.197.612.427 1.214.694 1.803.682 1.5 1.472 3.011 2.321 4.5zM86.1 52.897c0 1.615-.33 3.157-.978 4.583-2.793 6.142-8.148 12.625-9.722 14.465a.618.618 0 0 1-.941 0c-1.047-1.223-3.763-4.502-6.288-8.364a56.585 56.585 0 0 0 2.598-4.976c.179-.394.337-.796.484-1.2a5.756 5.756 0 0 0 3.676 1.323c3.199 0 5.802-2.616 5.802-5.83 0-3.215-2.603-5.832-5.802-5.832-1.103 0-2.131.316-3.01.856a17.333 17.333 0 0 0-1.933-5.075 11.031 11.031 0 0 1 4.943-1.174c6.159 0 11.17 5.035 11.17 11.224z"/></g></g></svg>