<svg xmlns="http://www.w3.org/2000/svg" width="112" height="112" viewBox="0 0 112 112"><g><g><path fill="#212869" d="M56.203.63c30.719 0 55.622 24.916 55.622 55.65 0 30.735-24.903 55.65-55.622 55.65-30.72 0-55.622-24.915-55.622-55.65C.581 25.547 25.484.63 56.203.63z"/></g><g><path fill="#fff" d="M46.254 86.946s-5.781 0-5.781-5.57V31.234c0-5.57 5.781-5.57 5.781-5.57H66.49s5.781 0 5.781 5.57v50.14c0 5.571-5.781 5.571-5.781 5.571zm13.009-5.101c0-1.535-1.295-2.781-2.891-2.781s-2.89 1.246-2.89 2.78c0 1.536 1.294 2.782 2.89 2.782s2.89-1.246 2.89-2.781zm-7.227-52.62c0 .339.173.614.384.614h7.904c.21 0 .384-.27.384-.615v-.164c0-.34-.173-.614-.384-.614H52.42c-.214 0-.384.27-.384.614zm-8.672 47.892H69.38v-44.5H43.364z"/></g></g></svg>