<svg xmlns="http://www.w3.org/2000/svg" width="23" height="23" viewBox="0 0 23 23"><g><g><path fill="#ef3e36" d="M22.326 1.66c.372 0 .674.302.674.674 0 3.02-.79 5.868-2.222 8.02-1.416 2.13-3.303 3.35-5.34 3.47a6.92 6.92 0 0 1-1.46 1.225v2.995h1.13a2.481 2.481 0 0 1 2.479 2.478v1.13h.048a.674.674 0 0 1 0 1.348H5.365a.674.674 0 1 1 0-1.348h.048v-1.13a2.481 2.481 0 0 1 2.478-2.478h1.13v-2.995a6.923 6.923 0 0 1-1.459-1.226c-2.037-.119-3.924-1.34-5.34-3.468C.789 8.202 0 5.353 0 2.334c0-.372.302-.674.674-.674h2.951c-.01-.327-.016-.656-.016-.986 0-.372.301-.674.674-.674h14.434c.372 0 .674.302.674.674 0 .33-.006.659-.016.986zM3.344 9.608c.854 1.285 1.892 2.17 3.012 2.593-.195-.32-.383-.66-.562-1.019C4.666 8.926 3.944 6.083 3.7 3.008H1.36c.107 2.501.801 4.824 1.983 6.6zm16.312 0c1.182-1.776 1.876-4.099 1.982-6.6H19.3c-.243 3.075-.965 5.918-2.093 8.174-.18.36-.367.699-.562 1.019 1.12-.423 2.157-1.308 3.012-2.593z"/></g></g></svg>