<svg xmlns="http://www.w3.org/2000/svg" width="13" height="22" viewBox="0 0 13 22"><g><g><path fill="#fff" d="M12.356.65c.429.436.644.95.644 1.547V19.8c0 .595-.215 1.111-.644 1.547-.428.435-.936.654-1.523.654H2.167c-.588 0-1.095-.219-1.524-.654A2.13 2.13 0 0 1 0 19.799V2.197C0 1.601.214 1.086.643.65c.429-.436.936-.653 1.524-.653h8.666c.587 0 1.095.217 1.523.653zM5.145 2.197c-.18 0-.27.092-.27.275 0 .184.09.275.27.275h2.709c.18 0 .27-.091.27-.275 0-.183-.09-.275-.27-.275zM7.456 20.77c.266-.27.398-.593.398-.971s-.132-.702-.398-.971a1.294 1.294 0 0 0-.957-.405c-.372 0-.69.136-.955.405-.266.27-.4.593-.4.97 0 .379.134.703.4.972.264.27.583.404.955.404.374 0 .692-.135.957-.404zm3.919-15.822a.533.533 0 0 0-.161-.387.516.516 0 0 0-.38-.163H2.166a.52.52 0 0 0-.382.163.536.536 0 0 0-.16.387v12.1c0 .15.054.278.16.388a.52.52 0 0 0 .382.162h8.666a.52.52 0 0 0 .38-.162.533.533 0 0 0 .162-.388z"/></g></g></svg>