<svg xmlns="http://www.w3.org/2000/svg" width="201" height="200" viewBox="0 0 201 200"><defs><clipPath id="qc7pa"><path fill="#fff" d="M100.406 0c55.246 0 100.031 44.757 100.031 99.968 0 55.212-44.785 99.97-100.03 99.97C45.16 199.937.374 155.18.374 99.967.375 44.758 45.16 0 100.406 0z"/></clipPath></defs><g><g><path fill="#212869" d="M100.406 7.343c51.19 0 92.688 41.47 92.688 92.625 0 51.156-41.498 92.625-92.688 92.625-51.19 0-92.687-41.469-92.687-92.625 0-51.155 41.497-92.625 92.687-92.625z"/></g><g><path fill="none" stroke="#212869" stroke-dasharray="4 4" stroke-linecap="round" stroke-miterlimit="50" stroke-width="4" d="M100.406 0c55.246 0 100.031 44.757 100.031 99.968 0 55.212-44.785 99.97-100.03 99.97C45.16 199.937.374 155.18.374 99.967.375 44.758 45.16 0 100.406 0z" clip-path="url(&quot;#qc7pa&quot;)"/></g><g><path fill="#fff" d="M104.303 66c1.18.18 2.38.281 3.54.554 11.054 2.606 18.04 9.433 20.989 20.382.788 2.925.761 5.941.699 8.945-.023 1.124-.966 2.006-2.065 2.01-1.127.002-2.047-.905-2.08-2.068-.048-1.639.002-3.285-.144-4.915-.528-5.916-3.07-10.86-7.443-14.85-3.528-3.22-7.694-5.177-12.433-5.707-7.818-.876-14.471 1.606-19.828 7.374-3.267 3.518-5.154 7.737-5.73 12.494-.213 1.757-.151 3.55-.187 5.326-.028 1.402-.85 2.348-2.088 2.345-1.237-.003-2.046-.948-2.076-2.356-.074-3.428.045-6.84 1.117-10.133 3.212-9.867 9.845-16.127 19.91-18.692 1.375-.351 2.807-.479 4.213-.71h3.606zm-13.036 71c-.968-.404-1.651-1.049-1.6-2.171.04-.877.503-1.54 1.341-1.848a40.868 40.868 0 0 0 10.24-5.531c.819-.607 1.695-.604 2.504-.005 3.17 2.348 6.608 4.183 10.302 5.56.833.31 1.262 1.012 1.276 1.891.015.886-.437 1.53-1.233 1.926l-.365.178h-.97c-.032-.033-.057-.082-.095-.095a42.107 42.107 0 0 1-9.794-5.007c-.36-.249-.566-.08-.853.088-1.825 1.066-3.628 2.177-5.502 3.152-1.377.716-2.85 1.247-4.28 1.862h-.97zM80.728 66c.111.069.218.146.333.207.891.478 1.36 1.414 1.149 2.295-.241 1-1.047 1.648-2.108 1.652-2.791.009-5.583.004-8.375.005h-.568v.775c0 2.63 0 5.26-.002 7.89 0 1.303-.572 2.126-1.654 2.385-.966.233-1.829-.274-2.4-1.404-.017-.034-.068-.052-.103-.077V67.525a3.216 3.216 0 0 1 1.525-1.526h12.203zM138 79.727c-.07.11-.147.217-.208.331-.48.893-1.412 1.362-2.296 1.155-.987-.231-1.647-1.057-1.65-2.111-.01-2.792-.005-5.585-.006-8.377v-.567h-.775l-7.892-.002c-1.297 0-2.142-.583-2.388-1.655-.22-.956.395-2.113 1.408-2.4.033-.01.053-.067.078-.103h12.203c.684.334 1.195.84 1.526 1.526v12.203zm-71 43.543c.07-.112.145-.22.207-.334.479-.89 1.414-1.36 2.297-1.154.99.233 1.647 1.053 1.65 2.112.01 2.7.005 5.4.005 8.1v.845h.775c2.631 0 5.262 0 7.893.002 1.301 0 2.136.58 2.388 1.653.227.968-.28 1.828-1.41 2.4-.034.018-.051.069-.077.105H68.525A3.22 3.22 0 0 1 67 135.474V123.27zM124.27 137c-.11-.07-.216-.147-.33-.208-.895-.484-1.363-1.413-1.154-2.296.234-.99 1.054-1.648 2.11-1.651 2.769-.01 5.538-.005 8.307-.005h.637v-.775l.001-7.893c.001-1.303.574-2.13 1.655-2.385.911-.215 2.107.363 2.4 1.407.01.033.067.052.103.077v12.203a3.252 3.252 0 0 1-1.526 1.526h-12.203zm-15.425-42.267c-.116-1.12-.097-2.273-.373-3.352-.761-2.971-3.744-4.957-6.655-4.556-3.207.442-5.529 3.005-5.557 6.164-.02 2.238.05 4.473-.403 6.692-1.51 7.408-7.816 13.469-15.252 14.577-.979.146-1.972.234-2.961.263-1.23.037-2.16-.867-2.183-2.024-.024-1.19.899-2.092 2.168-2.121 6.95-.154 12.59-4.693 14.106-11.472.314-1.4.329-2.885.347-4.332.025-1.879.058-3.728.807-5.501 1.768-4.192 6.126-6.864 10.504-6.406 4.703.492 8.505 3.879 9.309 8.443.238 1.35.2 2.762.184 4.144-.05 4.362 1.41 8.105 4.572 11.117 2.716 2.589 5.995 3.909 9.753 4.003 1.403.035 2.34.868 2.327 2.105-.013 1.236-.964 2.06-2.372 2.055-8.87-.028-16.812-6.86-18.147-15.649-.208-1.364-.255-2.753-.376-4.13a9.44 9.44 0 0 0 .202-.02zm8.182-.084c.217-3.971-.588-7.345-2.832-10.235-3.774-4.86-8.786-6.886-14.795-5.548-6.136 1.366-9.924 5.361-11.166 11.554-.345 1.72-.272 3.537-.287 5.31-.04 4.794-3.109 8.873-7.734 10.11-.86.23-1.771.323-2.663.354-1.167.038-2.081-.915-2.09-2.043-.01-1.132.877-2.039 2.051-2.096 3.796-.185 6.29-2.78 6.259-6.591-.025-2.967.004-5.923 1.117-8.73 2.833-7.148 8.034-11.41 15.697-12.264a18.492 18.492 0 0 1 20.29 15.16c.357 2.004.26 4.091.34 6.143.105 2.64 1.294 4.595 3.698 5.698.753.346 1.633.483 2.47.563 1.27.121 2.186.966 2.155 2.154-.031 1.156-.96 2.012-2.197 2.023-4.961.043-9.539-3.942-10.143-8.866-.124-1.005-.13-2.024-.17-2.696zm-14.536 11.637c-.228.492-.395.886-.589 1.266-4.193 8.2-10.776 13.221-19.859 14.906-.61.114-1.23.223-1.848.247-1.189.045-2.095-.811-2.157-1.966-.058-1.103.75-2.048 1.898-2.172 4.773-.517 9.01-2.304 12.615-5.467 4.55-3.992 7.159-9.03 7.73-15.069.147-1.559.112-3.137.136-4.707.022-1.418.824-2.353 2.066-2.36 1.24-.008 2.11.938 2.089 2.334-.045 2.915-.03 5.832.847 8.645 2.778 8.903 8.725 14.373 17.856 16.348.518.112 1.043.203 1.57.258 1.386.145 2.229 1.063 2.097 2.317-.13 1.235-1.179 1.997-2.545 1.826-2.644-.331-5.208-.974-7.65-2.055-6.388-2.83-11.046-7.421-13.967-13.772-.073-.159-.155-.312-.289-.579zm19.153 21.86c.006 1.371-1.227 2.355-2.597 2.01-7.055-1.777-13.04-5.35-17.925-10.75-.947-1.046-.93-2.323-.006-3.131.916-.802 2.189-.658 3.123.375 4.012 4.436 8.89 7.482 14.634 9.146.464.134.938.24 1.393.398.858.296 1.374 1.047 1.378 1.952zm-25.643-6.888c1.165.005 1.94.582 2.22 1.464.284.899-.016 1.794-.845 2.355-2.239 1.515-4.608 2.793-7.147 3.724a50.236 50.236 0 0 1-4.01 1.265c-1.146.315-2.255-.35-2.549-1.423-.306-1.118.354-2.2 1.508-2.592 1.848-.627 3.723-1.202 5.507-1.982 1.468-.642 2.814-1.56 4.225-2.335.415-.228.869-.381 1.091-.476z"/></g></g></svg>