<svg xmlns="http://www.w3.org/2000/svg" width="201" height="200" viewBox="0 0 201 200"><defs><clipPath id="r8tla"><path fill="#fff" d="M100.766.031c55.185 0 99.921 44.652 99.921 99.734 0 55.082-44.736 99.735-99.921 99.735C45.58 199.5.844 154.847.844 99.765S45.58.031 100.766.031z"/></clipPath></defs><g><g><path fill="#212869" d="M100.766 7.343c51.13 0 92.578 41.386 92.578 92.438s-41.449 92.437-92.578 92.437c-51.13 0-92.579-41.385-92.579-92.437s41.45-92.438 92.579-92.438z"/></g><g><path fill="none" stroke="#212869" stroke-dasharray="4 4" stroke-linecap="round" stroke-miterlimit="50" stroke-width="4" d="M100.766.031c55.185 0 99.921 44.652 99.921 99.734 0 55.082-44.736 99.735-99.921 99.735C45.58 199.5.844 154.847.844 99.765S45.58.031 100.766.031z" clip-path="url(&quot;#r8tla&quot;)"/></g><g><path fill="#fff" d="M99.142 66.988c13.959 0 25.315 11.399 25.319 25.408 0 3.656-.746 7.146-2.217 10.374-6.33 13.902-18.466 28.577-22.034 32.743a1.402 1.402 0 0 1-2.134 0c-3.57-4.166-15.707-18.844-22.036-32.743-1.467-3.228-2.213-6.718-2.213-10.374 0-14.01 11.357-25.408 25.315-25.408zm0 38.606c7.25 0 13.151-5.921 13.151-13.198s-5.9-13.199-13.151-13.199c-7.25 0-13.15 5.922-13.15 13.199s5.9 13.198 13.15 13.198zm-22.432 6.133c-4.16 6.32-8.592 11.663-10.313 13.673a1.031 1.031 0 0 1-1.57 0c-2.625-3.063-11.55-13.857-16.203-24.077-1.08-2.374-1.628-4.94-1.628-7.628 0-10.302 8.351-18.683 18.615-18.683 3.236 0 6.28.836 8.933 2.3a28.83 28.83 0 0 0-3.45 8.397 9.583 9.583 0 0 0-5.483-1.72c-5.332 0-9.67 4.355-9.67 9.706 0 5.35 4.338 9.705 9.67 9.705a9.6 9.6 0 0 0 6.073-2.163 28.2 28.2 0 0 0 1.157 3.002c1.137 2.496 2.454 5.011 3.87 7.488zm74.288-16.99c0 2.69-.548 5.255-1.63 7.63-4.654 10.222-13.579 21.013-16.202 24.076a1.03 1.03 0 0 1-1.569 0c-1.745-2.036-6.271-7.494-10.478-13.922 1.591-2.732 3.07-5.52 4.328-8.282.299-.656.562-1.325.808-1.999a9.6 9.6 0 0 0 6.125 2.203c5.332 0 9.67-4.355 9.67-9.705s-4.338-9.706-9.67-9.706a9.561 9.561 0 0 0-5.016 1.425 28.816 28.816 0 0 0-3.22-8.448 18.407 18.407 0 0 1 8.236-1.954c10.265 0 18.616 8.381 18.618 18.683z"/></g></g></svg>