<svg xmlns="http://www.w3.org/2000/svg" viewBox="0 0 159 159"><defs><style>.a{fill:#212869;}.b{fill:#fff;}.c{fill:none;stroke:#212869;stroke-linecap:round;stroke-width:2px;stroke-dasharray:4 4;}</style></defs><title>round-bigheart</title><path class="a" d="M79.14,6.78A72.72,72.72,0,1,1,6.42,79.5,72.71,72.71,0,0,1,79.14,6.78Z"/><path class="b" d="M80,87.74a4.47,4.47,0,0,1-.46-.68c-1.49-4.5-3.06-9-4.42-13.51a13.47,13.47,0,0,0-4.06-6.49c-.69-.62-1.27-.76-1.91,0a41.66,41.66,0,0,0-4,4.69,16.79,16.79,0,0,0-1.37,4.16c-1,3.21-2.8,6.63-7.1,6.93a12.25,12.25,0,0,1-3.53,0,3,3,0,0,0-2.87,1,27.31,27.31,0,0,0-1.86,2,.86.86,0,0,0,.07,1.44c1,.86,2,1.74,3.1,2.58a1.48,1.48,0,0,0,.83.28c2.64.09,5.29.34,7.91.2C65.2,90,67.79,87.6,69,83a8.32,8.32,0,0,0,0-1.23,11.45,11.45,0,0,1,.22-1.14l.3,0c.2.64.4,1.29.61,1.93,1.59,4.86,3.26,9.69,4.75,14.57a14.59,14.59,0,0,0,3,4.82,2.17,2.17,0,0,0,3.1.33A7.56,7.56,0,0,0,84,98.56c1.54-3.94,3-7.93,4.44-11.89.17-.46.42-.9.63-1.33,1.09,1.19,2.08,2.3,3.12,3.37,1.42,1.47,3.3,1.56,5.18,1.53.48,0,1-.17,1.44-.17h29.57a8.65,8.65,0,0,1,2.16,0c1.23.31,1.44,1.4.5,2.25a4.55,4.55,0,0,1-3.76,1.08A23.67,23.67,0,0,0,116,94.52a27,27,0,0,0-10.34,7,77.18,77.18,0,0,1-13.38,11.21c-3.92,2.6-7.86,5.17-11.85,7.66a3.51,3.51,0,0,1-3.8.1c-4.51-2.78-9.08-5.47-13.47-8.43a80.2,80.2,0,0,1-12.23-10.3A68.46,68.46,0,0,1,40.59,88.52a34.88,34.88,0,0,1-4.48-12.15A33,33,0,0,1,35.66,70C35.86,64.9,37,60,40.25,55.82a22,22,0,0,1,10.13-7.17,25,25,0,0,1,10.39-1.23,16.38,16.38,0,0,1,8.69,3.4,25.92,25.92,0,0,1,7.81,10.42,1.77,1.77,0,0,0,1.06,1c.27.07.76-.43,1-.78,1.35-1.76,2.61-3.6,4-5.31a27.88,27.88,0,0,1,7-6.36,17,17,0,0,1,7.32-2.66,20.28,20.28,0,0,1,10.83,2.25,23.19,23.19,0,0,1,7,5,21.09,21.09,0,0,1,4.22,6.85,24.85,24.85,0,0,1,1.75,9.65,31.17,31.17,0,0,1-2.12,10.81,1.26,1.26,0,0,1-1.39.94q-9.44-.07-18.87,0a4.21,4.21,0,0,1-4-2.45c-1-1.88-1.84-3.89-3-5.65a8.25,8.25,0,0,0-2.89-2.35c-1.24-.7-3.13.29-3.95,2-.9,1.93-1.66,3.93-2.45,5.91C82,82.59,81,85.07,80,87.74Z"/><path class="b" d="M80.78,87.44a3,3,0,0,1-.42-.63c-1.39-4.13-2.85-8.24-4.1-12.41a12.48,12.48,0,0,0-3.77-6c-.65-.57-1.18-.69-1.78,0a40,40,0,0,0-3.66,4.3,15.05,15.05,0,0,0-1.27,3.82c-.91,3-2.6,6.1-6.59,6.37a11.25,11.25,0,0,1-3.28,0,2.82,2.82,0,0,0-2.66.89,23.24,23.24,0,0,0-1.72,1.85.79.79,0,0,0,.07,1.32c.95.79,1.89,1.6,2.87,2.37a1.37,1.37,0,0,0,.77.26c2.44.08,4.9.32,7.34.18,4.48-.25,6.88-2.43,8-6.63a6.14,6.14,0,0,0,0-1.14c0-.35.14-.69.21-1l.27,0c.19.6.37,1.19.57,1.78,1.48,4.46,3,8.9,4.41,13.39a13.08,13.08,0,0,0,2.81,4.42,2,2,0,0,0,2.87.31,7,7,0,0,0,2.69-3.41c1.43-3.62,2.74-7.28,4.11-10.93.16-.42.4-.82.59-1.22,1,1.09,1.93,2.12,2.89,3.1,1.33,1.35,3.06,1.43,4.81,1.4.45,0,.89-.15,1.33-.15h27.43a8.34,8.34,0,0,1,2,0c1.14.29,1.33,1.29.46,2.07a4.22,4.22,0,0,1-3.48,1,22.2,22.2,0,0,0-10.44,1,25.05,25.05,0,0,0-9.59,6.41,70.84,70.84,0,0,1-12.41,10.3c-3.63,2.39-7.28,4.75-11,7a3.27,3.27,0,0,1-3.52.09c-4.18-2.56-8.42-5-12.49-7.74a75,75,0,0,1-11.35-9.47,63.13,63.13,0,0,1-9.59-12.15A31.58,31.58,0,0,1,40.08,77a29.14,29.14,0,0,1-.42-5.82c.19-4.72,1.24-9.24,4.26-13.06a20.36,20.36,0,0,1,9.39-6.58A23,23,0,0,1,63,50.39a15.11,15.11,0,0,1,8,3.12,23.69,23.69,0,0,1,7.24,9.57,1.71,1.71,0,0,0,1,.9c.25.06.71-.4,1-.72,1.26-1.62,2.42-3.31,3.73-4.88a25.79,25.79,0,0,1,6.52-5.84,15.92,15.92,0,0,1,6.79-2.45,19.07,19.07,0,0,1,10,2.07,21.31,21.31,0,0,1,6.52,4.62,19.29,19.29,0,0,1,3.92,6.3,22.52,22.52,0,0,1,1.62,8.86,28.49,28.49,0,0,1-2,9.93,1.19,1.19,0,0,1-1.29.87q-8.76-.08-17.51,0a3.87,3.87,0,0,1-3.65-2.25c-1-1.73-1.71-3.57-2.81-5.19a7.74,7.74,0,0,0-2.69-2.16c-1.15-.64-2.9.27-3.66,1.88-.84,1.77-1.54,3.61-2.27,5.43-.9,2.26-1.76,4.54-2.71,7Z"/><circle class="c" cx="79.5" cy="79.5" r="78.5"/></svg>