<svg xmlns="http://www.w3.org/2000/svg" width="157" height="157" viewBox="0 0 157 157"><defs><clipPath id="40ara"><path fill="#fff" d="M78.5 0C121.854 0 157 35.146 157 78.5S121.854 157 78.5 157 0 121.854 0 78.5 35.146 0 78.5 0z"/></clipPath></defs><g><g><path fill="#212869" d="M78.5 5.781c40.161 0 72.719 32.557 72.719 72.719 0 40.161-32.558 72.719-72.719 72.719-40.162 0-72.719-32.558-72.719-72.719C5.781 38.338 38.34 5.781 78.5 5.781z"/></g><g><path fill="none" stroke="#212869" stroke-dasharray="4 4" stroke-linecap="round" stroke-miterlimit="50" stroke-width="4" d="M78.5 0C121.854 0 157 35.146 157 78.5S121.854 157 78.5 157 0 121.854 0 78.5 35.146 0 78.5 0z" clip-path="url(&quot;#40ara&quot;)"/></g><g><path fill="#fff" d="M74.11 99.023c-.152.668-.328 1.33-.45 2.003-.378 2.076-1.167 3.992-2.182 5.811-.91 1.633-1.877 3.232-2.819 4.847-1.069 1.832-2.131 3.668-3.21 5.495-.657 1.112-1.485 1.861-2.908 1.823-2.686-.074-5.375-.02-8.062-.026a2.34 2.34 0 0 1-.672-.098c-.947-.29-.998-.57-.45-1.426.555-.865 1.009-1.798 1.532-2.686 1.186-2.01 2.361-4.028 3.589-6.012 1.183-1.912 2.52-3.731 3.615-5.693.928-1.664 1.445-3.507 1.836-5.413.415-2.028.57-4.058.551-6.096-.014-1.475-.339-2.947-.515-4.422a49.742 49.742 0 0 1-.211-2.095c-.175-2.277-.394-4.553-.486-6.834-.051-1.277.092-2.565.188-3.845.057-.76.279-1.515.275-2.272-.008-1.583.49-3.047.906-4.529.532-1.897 1.356-3.669 2.812-5.003.693-.635 1.583-1.06 2.417-1.518 1.907-1.049 4.002-.882 6.03-.729 1.229.093 2.476.526 3.622 1.026 1.765.77 3.536 1.594 5.142 2.653 1.282.846 2.353 2.041 3.459 3.144 1.051 1.05 2 2.206 3.046 3.263.504.51 1.348.302 1.77-.317.785-1.15 1.166-2.414.76-3.777-.193-.65-.622-1.233-.987-1.82-.68-1.093-.722-2.296-.594-3.515.16-1.513.907-2.788 1.88-3.861 1.491-1.647 3.672-2.46 5.96-1.832 1.694.464 3.088 1.352 3.988 2.918.804 1.397 1.213 2.852 1 4.542-.194 1.536-.861 2.855-1.384 4.243-.683 1.812-1.445 3.594-2.188 5.382-.474 1.14-.935 2.29-1.47 3.4-.923 1.914-2.074 3.675-3.984 4.688-1.475.782-3.044 1.155-4.76.842-1.855-.339-3.371-1.274-4.73-2.506-1.26-1.144-2.437-2.381-3.652-3.577-.09-.09-.176-.189-.278-.264-1.613-1.186-1.733-1.18-3.046.631-1.034 1.428-1.803 3.065-2.157 4.798-.493 2.417-.488 4.865.752 7.107a10.62 10.62 0 0 0 2.68 3.175c1.035.83 1.956 1.808 3.002 2.622 1.758 1.37 2.71 3.252 3.346 5.32.296.96.38 1.99.546 2.99.16.96.31 1.922.447 2.886.24 1.678.463 3.358.7 5.037.233 1.657.482 3.312.71 4.97.155 1.133.308 2.268.416 3.408.052.547-.513 1.098-1.093 1.093-2.319-.02-4.637-.066-6.956-.096-.179-.003-.361.072-.536.053-1.737-.194-1.737-.788-2.05-2.557-.282-1.606-.462-3.231-.673-4.85-.132-1.01-.224-2.025-.358-3.035-.246-1.849-.422-3.714-.804-5.534-.17-.806-.69-1.583-1.203-2.253-.516-.674-1.22-1.199-1.843-1.79l-.267.111zm4.679-61.865c2.66-.034 4.868 1.005 6.767 2.885a9.862 9.862 0 0 1 2.455 3.943c.68 2.036.692 4.146-.082 6.102-1.205 3.046-3.316 5.28-6.52 6.164-.533.147-1.209-.12-1.789-.298-1.761-.542-3.542-.875-5.392-.91-.992-.02-1.705-.736-2.34-1.462-1.034-1.184-1.812-2.528-2.21-4.065-.68-2.62-.404-5.153.937-7.498 1.176-2.058 2.837-3.599 5.115-4.305.983-.305 2.004-.48 3.008-.714l.05.158z"/></g></g></svg>