<svg xmlns="http://www.w3.org/2000/svg" viewBox="0 0 159 159"><defs><style>.a{fill:#212869;}.b{fill:#fff;}.c{fill:none;stroke:#212869;stroke-linecap:round;stroke-width:2px;stroke-dasharray:4 4;}</style></defs><title>round-meditation</title><path class="a" d="M79.5,6.78A72.72,72.72,0,1,1,6.78,79.5,72.72,72.72,0,0,1,79.5,6.78Z"/><path class="b" d="M116.77,92.21a20.84,20.84,0,0,1-1.42,2.27,2.3,2.3,0,0,1-1.36.85,20.6,20.6,0,0,1-7.73-.4A25.26,25.26,0,0,1,99,91.85a19.18,19.18,0,0,1-5.55-6.1A1.2,1.2,0,0,0,92,85c-.16,0-.27.47-.3.73-.31,2.42-.63,4.84-.89,7.26-.12,1.21-.16,2.42-.19,3.64A2.05,2.05,0,0,1,89,99c-1.66.56-3.31,1.15-5,1.6a17.26,17.26,0,0,1-8.74,0c-1.33-.32-2.62-.8-3.94-1.16-1.89-.52-2.32-1.89-2.46-3.65-.26-3.28-.67-6.55-1.07-9.82a1.16,1.16,0,0,0-.67-.85c-.27,0-.71.28-.94.55A49.35,49.35,0,0,1,63,89.66a15.91,15.91,0,0,1-6.18,4.11c-1.66.55-3.34,1-5,1.54a4.08,4.08,0,0,1-.71.06c-.95.06-1.89.17-2.84.16a21.93,21.93,0,0,1-2.92-.2c-.63-.09-2.18-2.29-2.06-2.92.05-.21.42-.44.69-.52,1.88-.53,3.78-1,5.65-1.54a12.51,12.51,0,0,0,8.35-6.71c.95-2,1.66-4.16,2.46-6.25,1.06-2.78,2-5.59,3.2-8.33a6.22,6.22,0,0,1,4-3.55,1.85,1.85,0,0,1,1.39.29,17.42,17.42,0,0,0,6.81,2.85,19.66,19.66,0,0,0,4,.51A18.29,18.29,0,0,0,88.28,67c.84-.46,1.62-1,2.48-1.45a1.94,1.94,0,0,1,1.38-.08,6.83,6.83,0,0,1,4.06,4.1c.92,2.46,2,4.87,2.93,7.32.63,1.63,1.12,3.31,1.72,4.95a12,12,0,0,0,7.59,7.75c2.42.84,4.92,1.45,7.39,2.17a9.22,9.22,0,0,1,.94.4ZM54.88,117.58c2.52-.76,4.79-1.43,7-2.15.27-.08.65-.48.63-.68a1.51,1.51,0,0,0-.6-1c-.85-.44-1.8-.67-2.65-1.11-2.61-1.37-5.23-2.71-7.74-4.24a4.05,4.05,0,0,1-1.9-2.95c-.06-.48-.18-.94-.28-1.42l1.45-.21a32.86,32.86,0,0,0,8.88-2.32,7,7,0,0,0,.78-.38c.83-.52,1-.48,1.48.4a11.06,11.06,0,0,0,6,5.21,29,29,0,0,0,7.46,2.18,41.13,41.13,0,0,0,6.38.11,21.44,21.44,0,0,0,4.45-.57c3.58-.92,7.18-1.9,9.8-4.78a11.71,11.71,0,0,0,1.56-2.31c.34-.64.6-.8,1.34-.5,1.58.66,3.24,1.14,4.86,1.71a19.13,19.13,0,0,0,6,1.1c.18,0,.51.41.51.63a4.13,4.13,0,0,1-1.18,3.11,15.52,15.52,0,0,1-3.11,2.46c-2.6,1.38-5.32,2.55-8,3.86a1.66,1.66,0,0,0-.79,1c-.1.6.45.64,1,.77,1.41.36,2.79.86,4.19,1.29.58.17,1.17.33,1.77.47s.72.59.4,1.11a18.9,18.9,0,0,1-1.47,2.18,1.4,1.4,0,0,1-1.07.44c-3.33-.38-6.65-.89-10-1.21-4-.38-8-1-11.92-1.76a8,8,0,0,0-2.43.32c-2,.29-3.94.61-5.92.88-2.73.37-5.47.75-8.21,1.06a39,39,0,0,0-4.76.43c-1.79.45-2.52-.46-3.19-1.74-.23-.44-.47-.88-.75-1.38Zm36.44-68.1A11.47,11.47,0,0,1,79.83,60.94,11.06,11.06,0,0,1,68.55,49.59c0-6.66,4.68-11.72,11.68-11.57A11.36,11.36,0,0,1,91.32,49.48Z"/><circle class="c" cx="79.5" cy="79.5" r="78.5"/></svg>