<svg xmlns="http://www.w3.org/2000/svg" viewBox="0 0 121.91 121.91"><defs><style>.a{fill:#212869;}.b{fill:#fff;}.c{fill:none;stroke:#212869;stroke-linecap:round;stroke-width:2px;stroke-dasharray:4 4;}</style></defs><title>s-round-loc</title><path class="a" d="M61,5.42A55.54,55.54,0,1,1,5.44,61,55.55,55.55,0,0,1,61,5.42Z"/><path class="b" d="M60,41.26A15.25,15.25,0,0,1,75.21,56.53a15.07,15.07,0,0,1-1.33,6.23c-3.8,8.35-11.08,17.17-13.22,19.67a.84.84,0,0,1-1.19.09l-.09-.09C57.23,79.93,50,71.11,46.15,62.76a15.06,15.06,0,0,1-1.32-6.23A15.24,15.24,0,0,1,60,41.26Zm0,23.2a7.93,7.93,0,1,0-7.9-7.93A7.92,7.92,0,0,0,60,64.46ZM46.56,68.14a85.9,85.9,0,0,1-6.19,8.21.63.63,0,0,1-.88.07l-.06-.07C37.85,74.51,32.5,68,29.7,61.89a11,11,0,0,1-1-4.58A11.21,11.21,0,0,1,39.9,46.08a11.07,11.07,0,0,1,5.36,1.38,17.14,17.14,0,0,0-2.07,5,5.65,5.65,0,0,0-3.29-1,5.83,5.83,0,0,0,0,11.66,5.76,5.76,0,0,0,3.64-1.3q.3.91.69,1.8c.69,1.5,1.48,3,2.33,4.5ZM91.13,57.93a11,11,0,0,1-1,4.59C87.36,68.66,82,75.14,80.43,77a.62.62,0,0,1-.87.07.23.23,0,0,1-.07-.07,86.09,86.09,0,0,1-6.29-8.36,56.08,56.08,0,0,0,2.6-5c.18-.39.34-.8.48-1.2a5.8,5.8,0,0,0,9.48-4.51A5.82,5.82,0,0,0,80,52.1,5.74,5.74,0,0,0,77,53,17.38,17.38,0,0,0,75,47.88,11,11,0,0,1,80,46.71,11.21,11.21,0,0,1,91.13,57.93Z"/><circle class="c" cx="60.96" cy="60.96" r="59.96"/></svg>