<svg xmlns="http://www.w3.org/2000/svg" width="121" height="121" viewBox="0 0 121 121"><defs><clipPath id="o9iya"><path fill="#fff" d="M60.719.037c33.147 0 60.018 26.888 60.018 60.056 0 33.168-26.87 60.056-60.018 60.056C27.57 120.15.7 93.261.7 60.093.7 26.925 27.571.037 60.719.037z"/></clipPath></defs><g><g><path fill="#212869" d="M60.719 4.443c30.714 0 55.612 24.916 55.612 55.65 0 30.735-24.898 55.65-55.612 55.65-30.714 0-55.613-24.915-55.613-55.65 0-30.734 24.899-55.65 55.613-55.65z"/></g><g><path fill="none" stroke="#212869" stroke-dasharray="4 4" stroke-linecap="round" stroke-miterlimit="50" stroke-width="4" d="M60.719.037c33.147 0 60.018 26.888 60.018 60.056 0 33.168-26.87 60.056-60.018 60.056C27.57 120.15.7 93.261.7 60.093.7 26.925 27.571.037 60.719.037z" clip-path="url(&quot;#o9iya&quot;)"/></g><g><path fill="#fff" d="M63.051 39.688c.709.108 1.429.17 2.124.333C71.808 41.587 76 45.688 77.77 52.266c.473 1.758.457 3.57.42 5.374a1.244 1.244 0 0 1-1.24 1.208c-.675.001-1.228-.544-1.248-1.242-.028-.985.002-1.974-.085-2.953-.318-3.555-1.843-6.525-4.467-8.922-2.116-1.934-4.616-3.11-7.46-3.429-4.69-.525-8.683.965-11.897 4.43-1.96 2.114-3.092 4.649-3.438 7.507-.128 1.055-.09 2.133-.112 3.2-.017.842-.51 1.41-1.253 1.409-.742-.002-1.227-.57-1.246-1.416-.044-2.06.028-4.11.67-6.087 1.928-5.928 5.908-9.69 11.946-11.231.826-.21 1.685-.287 2.529-.426h2.163zM55.23 82.344c-.581-.243-.991-.63-.96-1.305.024-.526.301-.925.805-1.11a24.516 24.516 0 0 0 6.143-3.323c.492-.364 1.018-.362 1.503-.003a24.943 24.943 0 0 0 6.181 3.34c.5.187.758.609.766 1.137.009.532-.262.92-.74 1.157-.073.036-.146.07-.219.107h-.582c-.019-.02-.034-.049-.057-.057a25.254 25.254 0 0 1-5.876-3.008c-.216-.15-.34-.048-.512.053-1.095.64-2.177 1.307-3.302 1.893-.826.43-1.71.75-2.568 1.119h-.582zm-6.324-42.656c.067.041.13.088.2.124.534.288.816.85.69 1.38-.145.6-.629.99-1.265.992-1.675.005-3.35.002-5.026.003h-.34v.465c0 1.58 0 3.16-.002 4.741 0 .783-.343 1.277-.992 1.433-.58.14-1.097-.165-1.44-.844-.01-.02-.04-.03-.062-.046v-7.332c.2-.41.505-.716.915-.916h7.322zm34.364 8.248c-.041.066-.087.13-.125.199-.288.536-.846.818-1.377.694-.592-.14-.988-.635-.99-1.268-.006-1.678-.003-3.356-.003-5.034v-.34h-.466l-4.735-.001c-.778 0-1.285-.35-1.433-.995-.132-.574.237-1.269.845-1.441.02-.006.032-.04.047-.062h7.322c.41.2.717.504.915.916v7.332zM40.67 74.096c.041-.067.087-.132.124-.201.287-.534.849-.818 1.379-.693.593.14.987.633.99 1.269.005 1.622.002 3.244.003 4.866v.508h.465l4.735.001c.781 0 1.282.348 1.433.993.136.582-.167 1.098-.845 1.442-.021.01-.032.041-.047.063h-7.322c-.41-.2-.715-.506-.915-.917v-7.331zm34.364 8.248c-.066-.043-.13-.089-.199-.126-.536-.29-.817-.848-.692-1.379.141-.595.633-.99 1.266-.991 1.662-.006 3.323-.003 4.985-.003h.382v-.466-4.742c.001-.783.345-1.28.994-1.433.546-.13 1.264.218 1.44.846.005.02.04.03.061.046v7.33c-.2.41-.505.716-.915.918h-7.322zM65.778 56.95c-.07-.673-.059-1.366-.224-2.014-.457-1.785-2.247-2.978-3.994-2.737-1.924.266-3.317 1.805-3.334 3.702-.012 1.345.03 2.688-.242 4.022-.906 4.45-4.69 8.091-9.151 8.757a15.18 15.18 0 0 1-1.777.158c-.738.023-1.295-.52-1.31-1.216-.014-.715.54-1.257 1.301-1.274 4.17-.093 7.554-2.82 8.464-6.892.188-.842.197-1.734.209-2.603.014-1.129.034-2.24.483-3.305 1.061-2.518 3.676-4.124 6.303-3.848 2.822.295 5.103 2.33 5.586 5.072.142.811.12 1.659.11 2.49-.03 2.62.846 4.869 2.743 6.678 1.63 1.556 3.598 2.348 5.852 2.405.842.022 1.405.522 1.397 1.265-.008.743-.579 1.238-1.423 1.235-5.323-.017-10.088-4.121-10.89-9.402-.124-.82-.152-1.654-.225-2.481l.122-.012zm4.909-.05c.13-2.386-.353-4.413-1.7-6.15-2.264-2.919-5.271-4.137-8.877-3.333-3.681.82-5.955 3.221-6.7 6.941-.207 1.034-.163 2.125-.172 3.19-.024 2.88-1.865 5.331-4.64 6.074a7.142 7.142 0 0 1-1.598.213c-.7.023-1.25-.55-1.255-1.227-.005-.68.527-1.225 1.232-1.259 2.277-.112 3.774-1.671 3.755-3.96-.015-1.783.002-3.558.67-5.245 1.7-4.295 4.82-6.855 9.419-7.368a11.098 11.098 0 0 1 12.174 9.108c.214 1.204.156 2.458.205 3.69.062 1.587.775 2.76 2.218 3.424.452.208.98.29 1.481.338.763.073 1.313.58 1.294 1.294-.019.695-.576 1.209-1.318 1.216-2.977.026-5.724-2.369-6.086-5.327-.074-.603-.078-1.216-.102-1.62zm-8.722 6.99c-.137.296-.237.533-.353.761-2.516 4.926-6.466 7.943-11.916 8.956a7.664 7.664 0 0 1-1.11.147 1.22 1.22 0 0 1-1.293-1.18c-.035-.663.45-1.23 1.139-1.306 2.863-.31 5.406-1.383 7.569-3.284 2.73-2.398 4.295-5.425 4.638-9.053.088-.936.067-1.884.082-2.827.013-.853.494-1.415 1.24-1.42.743-.004 1.265.565 1.252 1.403-.027 1.752-.018 3.504.509 5.194 1.667 5.349 5.235 8.636 10.714 9.822.31.068.626.121.941.155.832.087 1.338.638 1.259 1.391-.078.743-.707 1.2-1.527 1.098-1.587-.2-3.125-.585-4.59-1.235-3.833-1.7-6.628-4.458-8.38-8.274-.044-.095-.094-.187-.174-.348zm11.492 13.134a1.229 1.229 0 0 1-1.558 1.207c-4.233-1.067-7.825-3.214-10.755-6.458-.569-.63-.559-1.396-.004-1.882.55-.48 1.313-.394 1.874.226 2.407 2.665 5.334 4.495 8.78 5.495.279.08.563.144.836.239.515.178.824.63.827 1.173zm-15.386-4.139c.699.003 1.164.35 1.331.88.172.54-.009 1.078-.506 1.415-1.343.91-2.765 1.677-4.289 2.237-.789.29-1.595.538-2.406.76a1.23 1.23 0 0 1-1.529-.855c-.184-.671.213-1.322.904-1.557 1.11-.377 2.235-.722 3.305-1.191.88-.386 1.688-.937 2.535-1.402.249-.138.522-.23.655-.287z"/></g></g></svg>