<svg xmlns="http://www.w3.org/2000/svg" width="31" height="43"><path fill="#fff" d="M30.998 43.004h-9.363l-1.232-6.164a4.411 4.411 0 0 0-.268-.84 4.996 4.996 0 0 0-4.131-3.003c-.024 0-.047-.01-.07-.01h-.037c-.103 0-.21-.012-.302-.012-.046 0-.089 0-.133.003-.048-.003-.09-.003-.137-.003-.093 0-.199.013-.303.013h-.036c-.021 0-.047.01-.07.01-2.176.207-3.943 1.783-4.4 3.842l-1.229 6.164H.001L7.257 12.1l-.01-.023h-.006L4.497 6.141l-.01-.023h.009l-.024-.057L3.711.62A90.535 90.535 0 0 1 8.646.21V.207l.007.005h.008l1.22.82.754 4.53 1.442-.046h.025l.166-.005.2-5.488c.994-.021 1.989-.034 2.995-.034h.013c1.005 0 2 .013 2.994.034l.202 5.576a.7.7 0 0 0 .05.002h.004l1.62.074.002-.016-.002-.001.735-4.613 1.19-.793.006-.039-.003.002.003-.008c1.697.094 3.36.23 5.008.414l-.038.277-.722 5.16-2.783 6.038v.005zm-12.406-16.24l-1.99-9.444c-.13-.655-.48-1-1.043-1-.028 0-.059.001-.086.003a1.158 1.158 0 0 0-.09-.003c-.56 0-.91.345-1.039 1l-1.984 9.42-.006.023z"/></svg>