<svg xmlns="http://www.w3.org/2000/svg" width="15" height="22"><path fill="#2a2c6f" d="M15.01 21.44h-4.532l-.596-3.007a2.422 2.422 0 0 0-2.13-1.876c-.012 0-.023-.004-.035-.004H7.7c-.049 0-.101-.006-.145-.006h-.131c-.046 0-.096.006-.146.006h-.019c-.01 0-.022.004-.033.004a2.417 2.417 0 0 0-2.13 1.876L4.5 21.441H.005L3.517 6.358l-.005-.012H3.51L2.18 3.45l-.004-.012h.003l-.01-.028L1.8.755a43.81 43.81 0 0 1 2.39-.2V.553l.003.002h.004l.59.401.365 2.21.698-.021h.013l.08-.003L6.04.463c.482-.01.963-.017 1.45-.017h.007c.487 0 .968.006 1.45.017l.097 2.722h.026l.785.037v-.008L10.21.962l.576-.387.003-.019V.554a43.94 43.94 0 0 1 2.425.202l-.019.135-.349 2.52-1.347 2.946v.002zm-6.005-7.926L8.04 8.906c-.063-.32-.233-.488-.505-.488h-.084c-.271 0-.44.168-.503.488l-.961 4.597-.003.011z"/></svg>