<svg xmlns="http://www.w3.org/2000/svg" width="14" height="19"><path fill="#fff" d="M14.01 18.997H9.78l-.557-2.72a1.994 1.994 0 0 0-.122-.373 2.254 2.254 0 0 0-1.866-1.324c-.011 0-.021-.004-.032-.004h-.017c-.046 0-.095-.006-.136-.006l-.06.001-.062-.001c-.042 0-.09.006-.136.006h-.018c-.008 0-.02.004-.03.004-.984.092-1.783.788-1.99 1.697l-.554 2.72H.004L3.283 5.356l-.005-.01v-.001h-.003l-1.24-2.62-.003-.01h.003l-.01-.026-.345-2.4c.734-.08 1.475-.14 2.23-.182V.105l.003.002h.004l.55.363.341 1.998.652-.019h.012l.075-.002.09-2.423c.45-.01.898-.015 1.353-.015h.006c.454 0 .903.006 1.353.015l.091 2.461.022.001h.002l.733.033v-.007L9.528.474l.538-.35.003-.017-.001.001V.105c.768.042 1.52.102 2.264.184l-.017.122-.326 2.278-1.258 2.664v.003zm-5.606-7.169l-.9-4.169c-.058-.288-.216-.44-.47-.44h-.079c-.254 0-.412.152-.47.44l-.897 4.159-.003.01z"/></svg>