<svg xmlns="http://www.w3.org/2000/svg" width="157" height="157"><defs><clipPath id="a"><path fill="#fff" d="M78.5 0C121.854 0 157 35.146 157 78.5S121.854 157 78.5 157 0 121.854 0 78.5 35.146 0 78.5 0z"/></clipPath></defs><path fill="#212869" d="M78.5 5.781c40.161 0 72.719 32.557 72.719 72.719 0 40.161-32.558 72.719-72.72 72.719-40.16 0-72.718-32.558-72.718-72.719C5.781 38.338 38.34 5.781 78.5 5.781z"/><path fill="none" stroke="#212869" stroke-dasharray="4 4" stroke-linecap="round" stroke-miterlimit="50" stroke-width="4" d="M78.5 0C121.854 0 157 35.146 157 78.5S121.854 157 78.5 157 0 121.854 0 78.5 35.146 0 78.5 0z" clip-path="url(&quot;#a&quot;)"/><path fill="#fff" d="M101.374 111.98c-.756-.036-1.384-.084-2.012-.091-.37-.004-.739.057-1.108.086-.102.008-.21.028-.307.006-1.256-.286-2.51.103-3.768.015-.509-.036-.77-.23-.968-.703a51.211 51.211 0 0 0-1.53-3.309 304.91 304.91 0 0 0-3.144-6.043c-.432-.808-1.013-1.54-1.412-2.362-.737-1.521-1.85-2.78-2.843-4.112-.96-1.287-2.051-2.489-3.342-3.505a8.818 8.818 0 0 0-1.877-1.124c-.922-.415-1.827-.236-2.625.144-.864.411-1.653 1.022-2.389 1.647-.586.497-1.072 1.123-1.55 1.733-.838 1.066-1.672 2.138-2.44 3.254a47.788 47.788 0 0 0-2.157 3.433c-.52.911-.916 1.89-1.386 2.83-.373.745-.818 1.458-1.152 2.219-.368.836-.622 1.722-.97 2.568-.31.75-.66 1.485-1.03 2.207-.22.432-.643.656-1.113.693-1.163.092-2.329.15-3.494.208-.196.009-.394-.073-.593-.084-.309-.017-.62-.012-.93-.013-.43 0-.86-.008-1.29.007-.352.013-.703.071-1.055.079-.194.004-.464.009-.561-.105-.1-.118-.095-.402-.03-.572.325-.834.721-1.641 1.024-2.482.298-.829.487-1.696.774-2.528.34-.986.747-1.95 1.103-2.93.3-.827.524-1.683.86-2.494a187.504 187.504 0 0 1 2.526-5.873 82.76 82.76 0 0 1 2.331-4.755c.738-1.38 1.625-2.681 2.37-4.058a34.338 34.338 0 0 0 1.564-3.351c.413-1.014.77-2.06 1.05-3.117a9.46 9.46 0 0 0 .286-2.237c.02-1.288.047-2.59-.125-3.86-.11-.814-.494-1.623-.891-2.36-1.193-2.212-3.163-3.768-4.828-5.586-1.334-1.457-2.72-2.891-3.687-4.646-.368-.669-.706-1.354-1.083-2.018-.304-.535-.706-1.022-.96-1.577-.408-.888-.744-1.81-1.083-2.728-.257-.697-.512-1.4-.69-2.118a3.257 3.257 0 0 1-.044-1.308c.036-.207.337-.45.567-.524.474-.15.978-.247 1.475-.277 1.16-.07 2.374-.54 3.448.268.43.323.805.742 1.135 1.17 1.378 1.787 2.225 3.932 3.783 5.599.62.662 1.321 1.263 1.855 1.987.822 1.112 2.063 1.653 3.126 2.42.795.572 1.778.899 2.703 1.273 1.372.555 2.804.835 4.289.972.977.09 1.956.13 2.909.036 1-.1 1.965-.508 2.961-.706 1.23-.244 2.2-1.017 3.29-1.537.65-.31 1.187-.87 1.749-1.348.707-.604 1.434-1.195 2.067-1.872.732-.784 1.45-1.603 2.035-2.497 1.132-1.732 2.166-3.527 3.241-5.295.253-.414.598-.614 1.094-.457.064.02.132.04.198.037 1.005-.03 2.01-.063 3.016-.095.085-.003.17-.004.256-.004h1.702c.636.002.766.175.57.769-.407 1.23-.747 2.487-1.252 3.676-.407.958-1.009 1.835-1.539 2.739-.532.908-1.074 1.81-1.632 2.702-.211.339-.495.632-.718.964-.725 1.082-1.397 2.201-2.167 3.249-.563.765-1.22 1.468-1.885 2.15-1.11 1.136-2.16 2.312-2.973 3.684-.866 1.46-1.51 2.973-1.726 4.698-.206 1.647-.151 3.26.264 4.83.35 1.327.903 2.602 1.416 3.88.83 2.072 2.238 3.827 3.259 5.794a141.703 141.703 0 0 1 2.668 5.377c.61 1.31 1.144 2.656 1.655 4.008.517 1.368.955 2.766 1.447 4.143.24.673.58 1.314.777 1.998.487 1.692.911 3.4 1.372 5.1.126.464.296.917.44 1.377.132.416-.01.625-.296.632zm-69.363-3.086c0-.16-.033-.301.005-.421.359-1.141.703-2.288 1.103-3.416.604-1.708 1.203-3.42 1.89-5.096.645-1.569 1.454-3.07 2.095-4.64.678-1.657 1.483-3.257 2.484-4.72.788-1.151 1.27-2.414 1.821-3.654.902-2.025 1.086-4.188.928-6.372-.084-1.168-.611-2.19-1.25-3.177-.492-.759-1.075-1.395-1.718-2.02-.896-.867-1.616-1.919-2.532-2.76-1.037-.952-1.624-2.2-2.404-3.311-.68-.972-1.16-2.11-1.581-3.23-.307-.815-.385-1.717-.548-2.584-.099-.522.134-.828.728-.879.987-.085 1.99-.071 2.978.001.295.022.646.324.833.593.618.89 1.151 1.838 1.76 2.736.598.885 1.16 1.822 1.9 2.58.886.908 1.898 1.717 2.94 2.45 1.19.838 2.527 1.41 3.99 1.641.873.138 1.739.344 2.617.437.45.048.92-.078 1.378-.137 1.454-.186 2.814-.614 4.086-1.378.987-.594 1.906-1.253 2.732-2.047.31-.299.612-.326.915-.009.604.63 1.205 1.263 1.803 1.9.394.42.787.84 1.168 1.27.316.359.296.711-.035 1.08-.886.985-1.834 1.922-2.642 2.967-.96 1.24-1.677 2.579-1.869 4.23-.2 1.728-.003 3.358.457 4.993.058.206.16.403.258.595.23.448.19.829-.112 1.263-.318.457-.512 1-.764 1.505-.476.953-.978 1.894-1.428 2.86-.476 1.025-.897 2.076-1.357 3.108-.12.27-.296.517-.446.774-.243-.209-.494-.409-.728-.628-.29-.274-.542-.595-.855-.838-.568-.44-1.14-.887-1.763-1.238-.93-.523-2.279-.32-3.06.408-.885.823-1.791 1.63-2.606 2.52-.536.585-.966 1.281-1.375 1.968-.92 1.543-1.793 3.114-2.693 4.669-.225.39-.537.739-.708 1.148-.473 1.134-.884 2.294-1.338 3.436a5.84 5.84 0 0 1-.507.969c-.35.544-.95.553-1.492.566-1.47.034-2.94.016-4.41.006-.21-.001-.421-.075-.648-.118zm89.852.226c-1.021 0-2.043-.007-3.063.005-.267.003-.534.06-.8.098-.346.048-.573-.074-.722-.406-.516-1.156-1.032-2.313-1.585-3.452-.341-.702-.75-1.372-1.126-2.057-.44-.804-.839-1.633-1.324-2.409-.903-1.442-1.768-2.921-2.814-4.256a18.696 18.696 0 0 0-3.005-3.016c-1.166-.935-2.592-.784-3.788.158-.468.37-.916.765-1.367 1.154-.324.28-.533.245-.69-.156-.274-.697-.487-1.422-.804-2.098-.727-1.553-1.5-3.083-2.257-4.622-.11-.226-.238-.444-.343-.673-.314-.689-.548-1.35-.258-2.156.21-.583.198-1.255.226-1.89.035-.782-.023-1.57.016-2.351.072-1.464-.346-2.74-1.336-3.832-.817-.9-1.594-1.838-2.438-2.712-.363-.377-.416-.682-.139-1.102.404-.612.75-1.267 1.19-1.851a15.83 15.83 0 0 1 1.513-1.7c.116-.114.492-.11.654-.01 1.038.64 2.005 1.41 3.085 1.964.905.464 1.857.905 2.926.973.564.036 1.116.244 1.68.284 1.082.077 2.136-.039 3.212-.303 1.307-.321 2.488-.855 3.605-1.546.639-.394 1.203-.916 1.775-1.41 1.542-1.33 2.737-2.94 3.754-4.693.393-.678.82-1.337 1.216-2.015.21-.36.452-.582.92-.567 1.027.033 2.056.004 3.084.015.266.003.53.073.797.094.385.031.387.237.278.53-.19.51-.447 1.012-.532 1.541-.158.987-.623 1.813-1.147 2.63-.928 1.448-1.789 2.942-2.778 4.346-.8 1.137-1.676 2.24-2.648 3.23-1.29 1.313-2.322 2.772-2.978 4.47-.772 1.999-.728 4.046-.05 6.063.294.878.709 1.717 1.067 2.574.155.368.266.76.465 1.103.39.67.874 1.29 1.238 1.975.695 1.309 1.332 2.648 1.994 3.974.186.372.386.738.555 1.117.338.759.68 1.517.982 2.29.727 1.86 1.493 3.708 2.125 5.6.477 1.432.781 2.923 1.141 4.392.144.587-.062.803-.685.805h-.82l-.001-.102zM70.172 47.944c.032-1.638.516-3.14 1.34-4.494.539-.884 1.34-1.595 2.264-2.126 1.381-.793 2.827-1.427 4.456-1.33 2.134.126 4.173.68 5.734 2.202 1.245 1.214 2.072 2.72 2.3 4.516.144 1.123.134 2.23-.14 3.307-.262 1.036-.794 1.966-1.44 2.836-1.178 1.585-2.814 2.417-4.667 2.843-1.506.346-3.019.308-4.506-.256-1.596-.605-3-1.5-3.938-2.901-.55-.821-.797-1.858-1.102-2.822-.179-.567-.206-1.181-.301-1.775zM43.994 61.697c-.094-1.6.637-3.002 1.852-4.167.98-.94 2.23-1.36 3.545-1.586.704-.121.882.027 1.166.733.347.862.665 1.746 1.11 2.558.889 1.621 1.855 3.2 2.788 4.797.205.35.58.714.56 1.052-.02.31-.472.59-.728.887-.828.96-1.955 1.476-3.132 1.677a6.277 6.277 0 0 1-3.257-.298c-.872-.327-1.71-.75-2.325-1.43-1.117-1.233-1.587-2.045-1.579-4.223zm67.94.22c.03 1.862-.735 3.329-2.217 4.402-.667.483-1.403.903-2.163 1.215-.462.19-1.035.18-1.551.147-.75-.048-1.528-.094-2.227-.334-.708-.244-1.339-.716-1.995-1.102-.129-.075-.22-.212-.33-.32-.696-.695-.685-.687-.1-1.481.198-.267.317-.588.485-.877.526-.905 1.042-1.817 1.594-2.707.605-.977 1.264-1.922 1.862-2.903.267-.437.459-.922.655-1.397.213-.516.403-.629.935-.522 1.195.24 2.334.682 3.178 1.543.844.86 1.635 1.825 1.733 3.135.03.401.094.8.142 1.2z"/></svg>