<svg xmlns="http://www.w3.org/2000/svg" viewBox="0 0 159 159"><path d="M79.5 6.83A72.72 72.72 0 1 1 6.78 79.55 72.72 72.72 0 0 1 79.5 6.83z" fill="#212869"/><path d="M50 67l4 2.29C59 72.18 64.08 75 69 78a19.12 19.12 0 0 0 12.55 2.9c3.15-.4 5.9-1.93 8.6-3.54 4.61-2.76 9.3-5.4 14-8.08.78-.45 1.58-.88 2.38-1.29 1.39-.7 1.5-1.1.55-2.29a6.18 6.18 0 0 0-.71-.66c-.87.55-1.67 1.1-2.51 1.6a1.35 1.35 0 0 1-1.93-.33c-1.23-1.7-2.46-3.39-3.57-5.15a1.51 1.51 0 0 1 .33-1.44c1.87-1.44 3.82-2.8 5.78-4.13s4.11-2.64 6.13-4c.8-.54 1.55-.58 2.12.14 1.25 1.58 2.46 3.2 3.57 4.88a1.44 1.44 0 0 1-.5 2.06c-.22.15-.42.32-.63.49-1.94 1.48-1.93 1.47-.53 3.51 2.18 3.17 4.34 6.35 6.51 9.52a.86.86 0 0 0 1.34.25 16.1 16.1 0 0 1 2.23-1.44 1.61 1.61 0 0 1 1.47.17c1.23 1.59 2.37 3.25 3.48 4.93a1.59 1.59 0 0 1-.5 2.37c-3.9 2.67-7.83 5.32-11.73 8a1.39 1.39 0 0 1-2.13-.47c-1-1.27-1.93-2.57-2.85-3.89-1.15-1.65-1-2.58.7-3.69.58-.4 1.15-.82 1.71-1.21-.81-1.75-1.17-1.92-2.48-.86-4.37 3.53-9.25 6.43-13.22 10.46-2 2-4.13 3.7-6.12 5.63a3.62 3.62 0 0 0-1.17 2.68v16.48a8.41 8.41 0 0 1-.23 1.65 2 2 0 0 1-2.09 1.75H68.83a2.52 2.52 0 0 1-2.63-2.74V96.69A7.75 7.75 0 0 0 62.63 90a9.47 9.47 0 0 1-1.42-1.34c-3.46-3.68-7.63-6.53-11.67-9.52-1.36-1-2.8-1.92-4.08-3-1-.84-1.44-.17-2 .42s-.15 1 .48 1.39a14.35 14.35 0 0 1 1.27.94c1.07.76 1.4 1.66.72 2.66-1 1.54-2.23 3-3.36 4.49a1.37 1.37 0 0 1-2.1.27q-5.9-3.94-11.78-7.94a1.42 1.42 0 0 1-.35-2.22c1.12-1.63 2.25-3.26 3.39-4.87a.94.94 0 0 1 1.58-.28c.74.57 1.62 1 2.38 1.5.51.36.76.31 1.11-.19 2.52-3.62 5.07-7.21 7.58-10.83.37-.54.57-1.11-.32-1.56A16.31 16.31 0 0 1 42 58.4a1.07 1.07 0 0 1-.26-1.66c1.22-1.75 2.44-3.49 3.69-5.21a1.07 1.07 0 0 1 1.57-.24c3.94 2.56 7.88 5.12 11.79 7.72a2 2 0 0 1 .64 3c-.92 1.41-1.87 2.79-2.84 4.17a1.6 1.6 0 0 1-2.59.42 18.53 18.53 0 0 1-1.54-1.14c-.6-.49-1.07-.69-1.48.23A7.73 7.73 0 0 1 50 67zm40.25-3.59c.21 5.42-5.17 11-11.19 11.09-5 0-11.74-4.56-11.11-12.25.35-4.24 5.23-9.91 10.94-9.91 5.96 0 11.58 5.54 11.39 11.07z" fill="#fff"/><circle cx="79.5" cy="79.5" r="78.5" fill="none" stroke="#212869" stroke-linecap="round" stroke-width="2" stroke-dasharray="4 4"/></svg>