<svg xmlns="http://www.w3.org/2000/svg" viewBox="0 0 159 159"><path d="M79.5 6.78A72.72 72.72 0 1 1 6.78 79.5 72.72 72.72 0 0 1 79.5 6.78z" fill="#212869"/><path d="M102.37 113c-.75 0-1.38-.08-2-.09-.37 0-.74.06-1.11.08a1 1 0 0 1-.3 0c-1.26-.29-2.51.1-3.77 0a1 1 0 0 1-1-.71c-.47-1.12-1-2.22-1.53-3.31-1-2-2.07-4-3.14-6-.43-.81-1-1.54-1.41-2.36a26 26 0 0 0-2.85-4.11 18.48 18.48 0 0 0-3.32-3.5 8.73 8.73 0 0 0-1.88-1.12 3 3 0 0 0-2.62.14 10.84 10.84 0 0 0-2.39 1.65 11.61 11.61 0 0 0-1.55 1.73c-.84 1.07-1.67 2.14-2.44 3.26s-1.49 2.25-2.16 3.43c-.52.91-.91 1.89-1.38 2.83-.38.74-.82 1.46-1.16 2.22s-.62 1.72-1 2.57-.66 1.48-1 2.2a1.31 1.31 0 0 1-1.11.7c-1.16.09-2.33.15-3.49.2-.2 0-.4-.07-.6-.08s-.62 0-.93 0h-1.29c-.43 0-.7.08-1 .08s-.47 0-.56-.1a.66.66 0 0 1 0-.57c.32-.84.72-1.64 1-2.49s.49-1.69.78-2.52c.34-1 .74-2 1.1-2.93s.52-1.69.86-2.5q1.21-3 2.52-5.87 1.1-2.41 2.34-4.76c.73-1.38 1.62-2.68 2.37-4a35.07 35.07 0 0 0 1.56-3.35 26.59 26.59 0 0 0 .99-3.22 9.89 9.89 0 0 0 .29-2.24 26.13 26.13 0 0 0-.13-3.86 7.22 7.22 0 0 0-.89-2.4C67 69.83 65 68.27 63.34 66.46a25.5 25.5 0 0 1-3.69-4.65c-.36-.67-.7-1.35-1.08-2s-.7-1-1-1.58c-.41-.88-.74-1.81-1.08-2.72a20.16 20.16 0 0 1-.69-2.12 3.4 3.4 0 0 1-.05-1.31.9.9 0 0 1 .57-.52 6.24 6.24 0 0 1 1.48-.28c1.16-.07 2.37-.54 3.44.27a6 6 0 0 1 1.14 1.17c1.38 1.78 2.22 3.93 3.78 5.6a24.77 24.77 0 0 1 1.86 2 12.12 12.12 0 0 0 3.12 2.42A12.71 12.71 0 0 0 73.89 64a15.2 15.2 0 0 0 4.29 1 14.81 14.81 0 0 0 2.9 0c1-.1 2-.5 3-.7a14.53 14.53 0 0 0 3.29-1.54 8.57 8.57 0 0 0 1.74-1.35 23 23 0 0 0 2.07-1.87 18.86 18.86 0 0 0 2-2.5c1.13-1.73 2.16-3.52 3.24-5.29a.88.88 0 0 1 1.09-.46.71.71 0 0 0 .2 0l3-.1h2c.64 0 .77.17.57.77-.4 1.23-.74 2.49-1.25 3.67a24.6 24.6 0 0 1-1.54 2.74c-.53.91-1.07 1.81-1.63 2.71-.21.33-.49.63-.72 1-.72 1.08-1.39 2.2-2.16 3.25a21.38 21.38 0 0 1-1.89 2.15 19.8 19.8 0 0 0-3 3.68 12.08 12.08 0 0 0-1.73 4.7 12.63 12.63 0 0 0 .27 4.83 34 34 0 0 0 1.41 3.88c.83 2.07 2.24 3.83 3.26 5.79Q95.7 93 97 95.72c.61 1.31 1.14 2.66 1.65 4s1 2.77 1.45 4.14c.24.68.58 1.32.78 2 .48 1.69.91 3.4 1.37 5.1.13.46.3.92.44 1.38s-.03.66-.32.66zM33 109.89a1.44 1.44 0 0 1 0-.42c.36-1.14.7-2.28 1.1-3.41.6-1.71 1.2-3.42 1.89-5.1s1.45-3.07 2.09-4.64a25.29 25.29 0 0 1 2.49-4.72 21.8 21.8 0 0 0 1.84-3.6 13.22 13.22 0 0 0 .93-6.37 6.84 6.84 0 0 0-1.25-3.18 11.49 11.49 0 0 0-1.72-2c-.9-.87-1.62-1.92-2.53-2.76a18.42 18.42 0 0 1-2.41-3.31 14.45 14.45 0 0 1-1.58-3.23 17 17 0 0 1-.55-2.59c-.1-.52.14-.82.73-.88a18.53 18.53 0 0 1 3 0 1.31 1.31 0 0 1 .83.59c.62.89 1.15 1.84 1.76 2.73a17.52 17.52 0 0 0 1.9 2.58A20.88 20.88 0 0 0 44.44 72a9.43 9.43 0 0 0 4 1.64c.88.14 1.74.35 2.62.44a5.93 5.93 0 0 0 1.38-.14 10.28 10.28 0 0 0 4.08-1.37 15.79 15.79 0 0 0 2.74-2.05.56.56 0 0 1 .91 0c.6.63 1.21 1.26 1.8 1.9.4.42.79.84 1.17 1.27a.72.72 0 0 1 0 1.08c-.89 1-1.84 1.92-2.64 3A8.36 8.36 0 0 0 58.63 82a12.68 12.68 0 0 0 .45 5 3.51 3.51 0 0 0 .26.6 1.11 1.11 0 0 1-.11 1.26 11.72 11.72 0 0 0-.76 1.5c-.48 1-1 1.9-1.43 2.86s-.9 2.08-1.36 3.11a8.73 8.73 0 0 1-.45.78c-.24-.21-.49-.41-.72-.63a11.32 11.32 0 0 0-.86-.84 15.11 15.11 0 0 0-1.76-1.24 2.76 2.76 0 0 0-3.06.41c-.89.82-1.79 1.63-2.61 2.52a12.36 12.36 0 0 0-1.37 2c-.92 1.54-1.8 3.11-2.7 4.67a11.39 11.39 0 0 0-.7 1.15c-.48 1.13-.89 2.29-1.34 3.43a6 6 0 0 1-.51 1 1.64 1.64 0 0 1-1.49.57H33.7a3.2 3.2 0 0 1-.7-.26zm89.85.23h-3.06a5.44 5.44 0 0 0-.8.09.61.61 0 0 1-.72-.4c-.52-1.16-1-2.32-1.59-3.46-.34-.7-.75-1.37-1.12-2s-.84-1.64-1.33-2.41a50.53 50.53 0 0 0-2.81-4.26 18.24 18.24 0 0 0-3-3 2.88 2.88 0 0 0-3.78.16c-.47.37-.92.76-1.37 1.15s-.53.24-.69-.16c-.28-.69-.49-1.42-.81-2.09-.72-1.56-1.5-3.09-2.25-4.63-.11-.22-.24-.44-.35-.67a2.7 2.7 0 0 1-.25-2.16 6.53 6.53 0 0 0 .22-1.89v-2.35a5.1 5.1 0 0 0-1.34-3.83c-.81-.9-1.59-1.84-2.44-2.71a.76.76 0 0 1-.13-1.1c.4-.61.75-1.27 1.19-1.85A14.33 14.33 0 0 1 98 70.8a.68.68 0 0 1 .65 0c1 .64 2 1.41 3.09 2a7.37 7.37 0 0 0 2.92 1c.57 0 1.12.25 1.68.29a10.34 10.34 0 0 0 3.22-.31 12.51 12.51 0 0 0 3.6-1.54 16 16 0 0 0 1.78-1.41 18.11 18.11 0 0 0 3.75-4.69c.39-.68.82-1.34 1.22-2a1 1 0 0 1 .92-.57h3.08c.27 0 .53.07.8.09s.38.24.27.53a8.77 8.77 0 0 0-.53 1.54 6.89 6.89 0 0 1-1.14 2.63c-.93 1.45-1.79 3-2.78 4.35a25.72 25.72 0 0 1-2.65 3.23 13.13 13.13 0 0 0-3 4.47 8.71 8.71 0 0 0 0 6.06c.3.88.71 1.72 1.07 2.58a8.81 8.81 0 0 0 .46 1.1c.39.67.88 1.29 1.24 2 .7 1.31 1.33 2.65 2 4 .18.37.38.74.55 1.12.34.75.68 1.51 1 2.29.73 1.86 1.5 3.7 2.13 5.6.47 1.43.78 2.92 1.14 4.39.14.58-.06.8-.69.8h-.82v-.1zM71.17 48.94a8.9 8.9 0 0 1 1.34-4.49 6.28 6.28 0 0 1 2.27-2.13A8 8 0 0 1 79.23 41 8.63 8.63 0 0 1 85 43.2a7.56 7.56 0 0 1 2.3 4.51 9 9 0 0 1-.17 3.29 8.43 8.43 0 0 1-1.44 2.83 8.38 8.38 0 0 1-9.18 2.59 7.94 7.94 0 0 1-3.94-2.9 11.18 11.18 0 0 1-1.1-2.82 13 13 0 0 1-.3-1.76zM45 62.7a5.31 5.31 0 0 1 1.86-4.17 6.56 6.56 0 0 1 3.54-1.59c.7-.12.88 0 1.17.74a22.23 22.23 0 0 0 1.11 2.56c.89 1.62 1.85 3.2 2.79 4.79.2.35.58.72.56 1s-.48.59-.73.89a5.22 5.22 0 0 1-3.13 1.68 6.24 6.24 0 0 1-3.26-.3 5.89 5.89 0 0 1-2.33-1.43A5.16 5.16 0 0 1 45 62.7zm67.94.22a5.06 5.06 0 0 1-2.21 4.4 10.74 10.74 0 0 1-2.17 1.21 3.64 3.64 0 0 1-1.55.15 8.57 8.57 0 0 1-2.22-.33 11.92 11.92 0 0 1-2-1.11 1.66 1.66 0 0 1-.33-.32c-.7-.69-.68-.68-.1-1.48a8.14 8.14 0 0 0 .49-.87c.52-.91 1-1.82 1.59-2.71s1.26-1.92 1.86-2.9a10.51 10.51 0 0 0 .66-1.4c.21-.52.4-.63.93-.52a6 6 0 0 1 3.18 1.54 5.11 5.11 0 0 1 1.73 3.14c0 .4.1.8.14 1.2z" fill="#fff"/><circle cx="79.5" cy="79.5" r="78.5" fill="none" stroke="#212869" stroke-linecap="round" stroke-width="2" stroke-dasharray="4 4"/></svg>