<svg xmlns="http://www.w3.org/2000/svg" width="121" height="121"><defs><clipPath id="a"><path fill="#fff" d="M60.203.224c33.153 0 60.028 26.889 60.028 60.057 0 33.168-26.875 60.056-60.028 60.056S.175 93.449.175 60.281C.175 27.113 27.05.224 60.203.224z"/></clipPath></defs><path fill="#212869" d="M60.203 4.63c30.719 0 55.622 24.916 55.622 55.65 0 30.735-24.903 55.65-55.622 55.65-30.72 0-55.622-24.915-55.622-55.65 0-30.734 24.903-55.65 55.622-55.65z"/><path fill="none" stroke="#212869" stroke-dasharray="4 4" stroke-linecap="round" stroke-miterlimit="50" stroke-width="4" d="M60.203.224c33.153 0 60.028 26.889 60.028 60.057 0 33.168-26.875 60.056-60.028 60.056S.175 93.449.175 60.281C.175 27.113 27.05.224 60.203.224z" clip-path="url(&quot;#a&quot;)"/><path fill="#fff" d="M50.254 90.946s-5.781 0-5.781-5.57V35.234c0-5.57 5.781-5.57 5.781-5.57H70.49s5.781 0 5.781 5.57v50.14c0 5.571-5.781 5.571-5.781 5.571zm13.009-5.101c0-1.535-1.295-2.781-2.891-2.781s-2.89 1.246-2.89 2.78c0 1.536 1.294 2.782 2.89 2.782s2.89-1.246 2.89-2.781zm-7.227-52.62c0 .338.173.614.384.614h7.904c.21 0 .384-.27.384-.615v-.164c0-.34-.173-.614-.384-.614H56.42c-.214 0-.384.27-.384.614zm-8.672 47.892H73.38v-44.5H47.364z"/></svg>