<svg xmlns="http://www.w3.org/2000/svg" viewBox="0 0 121.91 121.91"><path d="M61.23 5.78A55.54 55.54 0 1 1 5.69 61.32 55.54 55.54 0 0 1 61.23 5.78z" fill="#212869"/><path d="M51.3 91.92s-5.77 0-5.77-5.56v-50c0-5.56 5.77-5.56 5.77-5.56h20.21s5.77 0 5.77 5.56v50c0 5.56-5.77 5.56-5.77 5.56zm13-5.09a2.89 2.89 0 1 0-2.9 2.77 2.84 2.84 0 0 0 2.89-2.77zm-7.23-52.52c0 .34.18.62.39.62h7.89c.21 0 .38-.27.38-.62v-.16c0-.34-.17-.61-.38-.61h-7.89c-.22 0-.39.27-.39.61zm-8.66 47.8h26V37.7h-26z" fill="#fff"/><circle cx="60.96" cy="60.96" r="59.96" fill="none" stroke="#212869" stroke-linecap="round" stroke-width="2" stroke-dasharray="4 4"/></svg>