<svg xmlns="http://www.w3.org/2000/svg" width="121" height="121"><defs><clipPath id="a"><path fill="#fff" d="M60.297.225c33.152 0 60.028 26.887 60.028 60.056 0 33.168-26.876 60.056-60.028 60.056C27.144 120.337.269 93.45.269 60.281S27.144.225 60.297.225z"/></clipPath></defs><path fill="#212869" d="M60.325 4.63c30.714 0 55.612 24.916 55.612 55.65 0 30.735-24.898 55.65-55.612 55.65-30.714 0-55.613-24.915-55.613-55.65 0-30.734 24.899-55.65 55.613-55.65z"/><path fill="none" stroke="#212869" stroke-dasharray="4 4" stroke-linecap="round" stroke-miterlimit="50" stroke-width="4" d="M60.297.225c33.152 0 60.028 26.887 60.028 60.056 0 33.168-26.876 60.056-60.028 60.056C27.144 120.337.269 93.45.269 60.281S27.144.225 60.297.225z" clip-path="url(&quot;#a&quot;)"/><path fill="#fff" d="M61.684 64.747c-.145-.21-.249-.306-.288-.424-.944-2.81-1.938-5.608-2.795-8.444-.487-1.613-1.299-2.951-2.566-4.062-.44-.387-.806-.471-1.21-.01-.849.966-1.81 1.863-2.5 2.93-.482.745-.595 1.723-.865 2.6-.618 2.008-1.77 4.146-4.49 4.332-.744.05-1.524.133-2.233-.03-.804-.183-1.31.179-1.812.605-.435.37-.777.845-1.176 1.26-.314.327-.29.616.049.897.648.54 1.291 1.088 1.954 1.612.136.108.346.17.525.177 1.667.06 3.342.217 5.002.124 3.053-.17 4.689-1.651 5.476-4.51.066-.241-.004-.516.021-.773.024-.238.092-.472.14-.709l.188-.025c.128.402.253.806.386 1.207 1.007 3.035 2.062 6.055 3.003 9.11.371 1.204 1.162 2.086 1.917 3.009.526.642 1.242.66 1.954.209.888-.564 1.469-1.394 1.835-2.32.976-2.462 1.87-4.955 2.804-7.433.11-.29.269-.563.4-.833.69.742 1.313 1.44 1.97 2.108.902.917 2.086.973 3.277.956.303-.004.606-.107.91-.107 6.228-.007 12.458-.005 18.687-.005.456 0 .937-.093 1.364.016.777.198.909.877.315 1.407-.673.6-1.489.782-2.372.675-2.425-.294-4.787-.155-7.114.691-2.56.931-4.693 2.444-6.534 4.364a48.651 48.651 0 0 1-8.456 7.005 319.34 319.34 0 0 1-7.49 4.791c-.726.45-1.607.543-2.4.06-2.849-1.738-5.738-3.42-8.51-5.27-2.803-1.869-5.362-4.058-7.735-6.438-2.5-2.506-4.731-5.236-6.537-8.267-1.403-2.355-2.39-4.894-2.83-7.596-.213-1.304-.34-2.646-.287-3.963.129-3.208.848-6.282 2.902-8.881 1.666-2.108 3.81-3.554 6.402-4.48 2.164-.773 4.352-.93 6.567-.77 2.014.145 3.865.908 5.49 2.126 2.277 1.708 3.787 3.973 4.934 6.512.118.26.409.549.67.608.173.039.483-.273.651-.489.858-1.099 1.648-2.25 2.54-3.321 1.278-1.535 2.703-2.93 4.445-3.973 1.43-.857 2.904-1.503 4.628-1.666 2.46-.234 4.663.392 6.844 1.407 1.692.787 3.165 1.813 4.448 3.142 1.204 1.248 2.024 2.707 2.669 4.288.79 1.94 1.131 3.967 1.106 6.03-.029 2.317-.501 4.579-1.34 6.756-.152.393-.364.594-.877.59a806.726 806.726 0 0 0-11.93-.008c-1.199.007-1.963-.573-2.492-1.532-.647-1.174-1.165-2.428-1.915-3.53-.421-.62-1.147-1.095-1.828-1.47-.786-.434-1.977.184-2.497 1.28-.572 1.207-1.052 2.457-1.547 3.698-.612 1.538-1.2 3.085-1.847 4.757z"/></svg>