<svg xmlns="http://www.w3.org/2000/svg" width="110" height="156"><defs><filter id="a" x="955" y="2071" width="110" height="156" filterUnits="userSpaceOnUse"><feFlood result="flood" flood-color="#13277b"/><feComposite result="composite" operator="in" in2="SourceGraphic"/><feBlend result="blend" in2="SourceGraphic"/></filter></defs><path data-name="Shape 560 copy 7" d="M1010.99 2071.02c1.62 0 3.23-.06 4.84.02 2.77.14 5.54.37 8.31.56 1.02.07 2.05.07 3.05.22 1.77.26 3.52.62 5.28.92.44.07.91 0 1.33.11 2.32.6 4.68 1.12 6.94 1.9a37.994 37.994 0 0 1 8.89 4.3 31.631 31.631 0 0 1 7.19 6.65 20.217 20.217 0 0 1 1.94 3.43 16.89 16.89 0 0 1 1.84 5.45c.25 1.82.78 3.61.91 5.43a80.394 80.394 0 0 1 .19 8.5c-.07 2.25-.46 4.49-.75 6.72q-.54 4.245-1.15 8.48c-.29 2-.65 3.99-.94 5.99-.1.67-.02 1.35-.1 2.02-.14 1.39-.34 2.77-.5 4.16-.21 1.8-.28 3.63-.63 5.4a5.961 5.961 0 0 0 .79 4.63 32.16 32.16 0 0 1 2.15 4.6c.74 1.73 1.45 3.48 2.07 5.26a33.733 33.733 0 0 1 .84 3.47c.32 1.43.64 2.87.92 4.32a12.045 12.045 0 0 1 .23 1.89c.15 2.86.38 5.71.37 8.56a41.787 41.787 0 0 1-.57 5.9 42.841 42.841 0 0 1-1.18 5.84 75.8 75.8 0 0 1-2.78 7.92 63.48 63.48 0 0 1-3.32 6.32 30.416 30.416 0 0 1-2.75 4.38 83.184 83.184 0 0 1-6.6 7.43 54.923 54.923 0 0 1-6.82 5.41 63.362 63.362 0 0 1-7.33 4.42 49.557 49.557 0 0 1-6.66 2.57 53.593 53.593 0 0 1-5.84 1.59c-1.69.37-3.46.41-5.15.78-3.13.67-6.28.36-9.41.31a39.854 39.854 0 0 1-6.48-.87 60.034 60.034 0 0 1-6.229-1.43 38.956 38.956 0 0 1-7.834-3.14c-1.49-.84-3.093-1.49-4.511-2.43a63.373 63.373 0 0 1-6.792-4.92 68.871 68.871 0 0 1-6.906-6.93 54.88 54.88 0 0 1-5.147-7.12 53.4 53.4 0 0 1-3.219-6.6 51.655 51.655 0 0 1-2.184-5.75c-.563-1.86-.826-3.8-1.295-5.69a33.58 33.58 0 0 1-.954-8.21c.006-2.21-.118-4.42.039-6.62a43.324 43.324 0 0 1 .91-5.41c.421-2.1.865-4.2 1.4-6.28a26.79 26.79 0 0 1 1.223-3.44c.647-1.57 1.3-3.15 2.072-4.66.825-1.61 1.779-3.15 2.706-4.71a3.953 3.953 0 0 0 .522-3.67 9.414 9.414 0 0 1-.3-2.26q-.317-2.745-.631-5.49-.225-1.935-.458-3.87c-.165-1.35-.351-2.7-.508-4.05-.214-1.86-.382-3.72-.62-5.57-.211-1.64-.393-3.29-.759-4.9-.838-3.69-.523-7.42-.538-11.14a34.2 34.2 0 0 1 1.058-7.32 23.392 23.392 0 0 1 3.117-7.6 31.093 31.093 0 0 1 3.822-4.52 26.478 26.478 0 0 1 7.219-5.14 50.479 50.479 0 0 1 6.575-2.61 41.615 41.615 0 0 1 5.1-1.52c1.746-.39 3.54-.57 5.315-.82 2.182-.31 4.362-.65 6.552-.89 1.52-.17 3.05-.24 4.58-.26 2.525-.05 5.035-.02 7.555-.02zm-.19 19.02v.2h-10.32a38.692 38.692 0 0 0-7.727.94 18.9 18.9 0 0 0-6.109 1.98 8.037 8.037 0 0 0-2.668 2.06 17.176 17.176 0 0 0-2.991 7.87 21.232 21.232 0 0 0 .394 8.63 11.081 11.081 0 0 0 3.451 5.62 36.411 36.411 0 0 0 3.382 2.57c.523.34.922 1.04 1.889.65a64.608 64.608 0 0 1 6.369-2.14 30.277 30.277 0 0 1 4.25-.8c2.53-.35 5.07-.81 7.62-.93a41.808 41.808 0 0 1 10.92.92c1.44.32 2.91.48 4.34.81 1 .23 1.96.62 2.94.94a24.685 24.685 0 0 1 4.14 1.44 1.7 1.7 0 0 0 2.16-.31c1.33-1.01 2.72-1.94 3.96-3.05a12.537 12.537 0 0 0 2.39-2.8 11.729 11.729 0 0 0 1.67-5.18 23.42 23.42 0 0 0-.34-7.78 31.507 31.507 0 0 0-1.88-5.05c-.98-2.21-2.8-3.31-4.83-4.15a22.626 22.626 0 0 0-4.05-1.17 56.721 56.721 0 0 0-6.03-1.04c-2.14-.21-4.3-.19-6.45-.22s-4.32-.01-6.48-.01z" transform="translate(-955 -2071)" fill="#2783c5" fill-rule="evenodd" filter="url(#a)"/></svg>